G04 MADE WITH FRITZING*
G04 WWW.FRITZING.ORG*
G04 DOUBLE SIDED*
G04 HOLES PLATED*
G04 CONTOUR ON CENTER OF CONTOUR VECTOR*
%ASAXBY*%
%FSLAX23Y23*%
%MOIN*%
%OFA0B0*%
%SFA1.0B1.0*%
%ADD10C,0.075361*%
%ADD11C,0.080000*%
%ADD12C,0.052000*%
%ADD13R,0.079986X0.080000*%
%ADD14R,0.080000X0.080000*%
%ADD15C,0.024000*%
%ADD16R,0.001000X0.001000*%
%LNCOPPER1*%
G90*
G70*
G54D10*
X3132Y1450D03*
X3032Y1450D03*
X2932Y1450D03*
X2832Y1450D03*
X2732Y1450D03*
X2632Y1450D03*
X2532Y1450D03*
X2432Y1450D03*
X2332Y1450D03*
X2232Y1450D03*
X2132Y1450D03*
X2032Y1450D03*
X1932Y1450D03*
X1832Y1450D03*
X1732Y1450D03*
X1632Y1450D03*
X1532Y1450D03*
X1432Y1450D03*
X1332Y1450D03*
X1232Y1450D03*
X1232Y1350D03*
X1332Y1350D03*
X1432Y1350D03*
X1532Y1350D03*
X1632Y1350D03*
X1732Y1350D03*
X1832Y1350D03*
X1932Y1350D03*
X2032Y1350D03*
X2132Y1350D03*
X2232Y1350D03*
X2332Y1350D03*
X2432Y1350D03*
X2532Y1350D03*
X2632Y1350D03*
X2732Y1350D03*
X2832Y1350D03*
X2932Y1350D03*
X3032Y1350D03*
X3132Y1350D03*
G54D11*
X3132Y850D03*
X3132Y1050D03*
X232Y2050D03*
X232Y1850D03*
X232Y1650D03*
X232Y1450D03*
X232Y1250D03*
X232Y1050D03*
X232Y450D03*
X232Y250D03*
X232Y650D03*
G54D12*
X932Y750D03*
X1032Y750D03*
X1132Y750D03*
X1232Y750D03*
X1332Y750D03*
X1432Y750D03*
X1532Y750D03*
X1632Y750D03*
X1632Y1050D03*
X1532Y1050D03*
X1432Y1050D03*
X1332Y1050D03*
X1232Y1050D03*
X1132Y1050D03*
X1032Y1050D03*
X932Y1050D03*
X932Y750D03*
X1032Y750D03*
X1132Y750D03*
X1232Y750D03*
X1332Y750D03*
X1432Y750D03*
X1532Y750D03*
X1632Y750D03*
X1632Y1050D03*
X1532Y1050D03*
X1432Y1050D03*
X1332Y1050D03*
X1232Y1050D03*
X1132Y1050D03*
X1032Y1050D03*
X932Y1050D03*
G54D11*
X2932Y2050D03*
X2732Y2050D03*
X2532Y2050D03*
X2332Y2050D03*
X2132Y2050D03*
X1932Y2050D03*
X1732Y2050D03*
X1532Y2050D03*
X1332Y2050D03*
X1132Y2050D03*
X932Y2050D03*
X3132Y2050D03*
X1132Y150D03*
X1332Y150D03*
X1532Y150D03*
X1732Y150D03*
X1932Y150D03*
X2132Y150D03*
X2332Y150D03*
X2532Y150D03*
X2732Y150D03*
X2932Y150D03*
X3132Y150D03*
X932Y150D03*
G54D13*
X3132Y850D03*
G54D14*
X232Y2050D03*
X232Y650D03*
X3132Y2050D03*
X932Y150D03*
G54D15*
X3132Y1070D02*
X3132Y1330D01*
D02*
X3125Y869D02*
X2940Y1331D01*
D02*
X832Y1652D02*
X2031Y1652D01*
D02*
X252Y1650D02*
X832Y1652D01*
D02*
X2031Y1652D02*
X2218Y1465D01*
D02*
X252Y2050D02*
X912Y2050D01*
D02*
X832Y1849D02*
X252Y1850D01*
D02*
X1116Y2039D02*
X832Y1849D01*
D02*
X2532Y1471D02*
X2532Y1652D01*
D02*
X2532Y1652D02*
X2532Y2030D01*
D02*
X534Y1449D02*
X832Y1550D01*
D02*
X832Y1550D02*
X1930Y1550D01*
D02*
X252Y1450D02*
X534Y1449D01*
D02*
X1930Y1550D02*
X2018Y1464D01*
D02*
X2718Y2036D02*
X2633Y1950D01*
D02*
X2633Y1950D02*
X2632Y1471D01*
D02*
X2830Y1950D02*
X2832Y1471D01*
D02*
X2918Y2036D02*
X2830Y1950D01*
D02*
X731Y1050D02*
X433Y650D01*
D02*
X433Y650D02*
X252Y650D01*
D02*
X916Y1050D02*
X731Y1050D01*
D02*
X534Y453D02*
X731Y751D01*
D02*
X731Y751D02*
X916Y750D01*
D02*
X252Y450D02*
X534Y453D01*
D02*
X948Y1050D02*
X1016Y1050D01*
D02*
X1232Y1330D02*
X1232Y1066D01*
D02*
X1332Y1330D02*
X1333Y1252D01*
D02*
X1333Y1252D02*
X1425Y1065D01*
D02*
X1530Y948D02*
X1621Y1039D01*
D02*
X1232Y948D02*
X1530Y948D01*
D02*
X1143Y1039D02*
X1232Y948D01*
D02*
X1434Y1252D02*
X1525Y1065D01*
D02*
X1433Y1330D02*
X1434Y1252D01*
D02*
X2332Y2030D02*
X2332Y1471D01*
D02*
X1148Y163D02*
X1733Y650D01*
D02*
X1631Y1252D02*
X1632Y1330D01*
D02*
X1733Y650D02*
X1733Y1050D01*
D02*
X1733Y1050D02*
X1631Y1252D01*
D02*
X1834Y650D02*
X1346Y164D01*
D02*
X1832Y1330D02*
X1834Y650D01*
D02*
X1930Y650D02*
X1545Y166D01*
D02*
X1932Y1330D02*
X1930Y650D01*
D02*
X2032Y1330D02*
X2031Y650D01*
D02*
X2031Y650D02*
X1742Y167D01*
D02*
X2132Y650D02*
X1940Y169D01*
D02*
X2132Y1330D02*
X2132Y650D01*
D02*
X2329Y650D02*
X2332Y1330D01*
D02*
X2139Y169D02*
X2329Y650D01*
D02*
X2431Y650D02*
X2432Y1330D01*
D02*
X2336Y170D02*
X2431Y650D01*
D02*
X2633Y650D02*
X2632Y1330D01*
D02*
X2536Y170D02*
X2633Y650D01*
D02*
X2732Y1330D02*
X2735Y650D01*
D02*
X2735Y650D02*
X2732Y170D01*
D02*
X2830Y650D02*
X2928Y170D01*
D02*
X2832Y1330D02*
X2830Y650D01*
D02*
X3230Y1652D02*
X3230Y352D01*
D02*
X3230Y352D02*
X3141Y168D01*
D02*
X3033Y1652D02*
X3230Y1652D01*
D02*
X3032Y1471D02*
X3033Y1652D01*
D02*
X134Y352D02*
X134Y1753D01*
D02*
X134Y1753D02*
X218Y1836D01*
D02*
X218Y265D02*
X134Y352D01*
G54D16*
X927Y1102D02*
X938Y1102D01*
X1027Y1102D02*
X1038Y1102D01*
X1127Y1102D02*
X1138Y1102D01*
X1227Y1102D02*
X1238Y1102D01*
X1327Y1102D02*
X1338Y1102D01*
X1427Y1102D02*
X1438Y1102D01*
X1527Y1102D02*
X1538Y1102D01*
X1627Y1102D02*
X1638Y1102D01*
X924Y1101D02*
X941Y1101D01*
X1024Y1101D02*
X1041Y1101D01*
X1124Y1101D02*
X1141Y1101D01*
X1224Y1101D02*
X1241Y1101D01*
X1324Y1101D02*
X1341Y1101D01*
X1424Y1101D02*
X1441Y1101D01*
X1524Y1101D02*
X1541Y1101D01*
X1624Y1101D02*
X1641Y1101D01*
X922Y1100D02*
X943Y1100D01*
X1022Y1100D02*
X1043Y1100D01*
X1122Y1100D02*
X1143Y1100D01*
X1222Y1100D02*
X1243Y1100D01*
X1322Y1100D02*
X1343Y1100D01*
X1422Y1100D02*
X1443Y1100D01*
X1522Y1100D02*
X1543Y1100D01*
X1622Y1100D02*
X1643Y1100D01*
X920Y1099D02*
X945Y1099D01*
X1020Y1099D02*
X1045Y1099D01*
X1120Y1099D02*
X1145Y1099D01*
X1220Y1099D02*
X1245Y1099D01*
X1320Y1099D02*
X1345Y1099D01*
X1420Y1099D02*
X1445Y1099D01*
X1520Y1099D02*
X1545Y1099D01*
X1620Y1099D02*
X1645Y1099D01*
X918Y1098D02*
X947Y1098D01*
X1018Y1098D02*
X1047Y1098D01*
X1118Y1098D02*
X1147Y1098D01*
X1218Y1098D02*
X1247Y1098D01*
X1318Y1098D02*
X1347Y1098D01*
X1418Y1098D02*
X1447Y1098D01*
X1518Y1098D02*
X1547Y1098D01*
X1618Y1098D02*
X1647Y1098D01*
X917Y1097D02*
X948Y1097D01*
X1017Y1097D02*
X1048Y1097D01*
X1117Y1097D02*
X1148Y1097D01*
X1217Y1097D02*
X1248Y1097D01*
X1317Y1097D02*
X1348Y1097D01*
X1417Y1097D02*
X1448Y1097D01*
X1517Y1097D02*
X1548Y1097D01*
X1617Y1097D02*
X1648Y1097D01*
X916Y1096D02*
X949Y1096D01*
X1016Y1096D02*
X1049Y1096D01*
X1116Y1096D02*
X1149Y1096D01*
X1216Y1096D02*
X1249Y1096D01*
X1316Y1096D02*
X1349Y1096D01*
X1416Y1096D02*
X1449Y1096D01*
X1516Y1096D02*
X1549Y1096D01*
X1616Y1096D02*
X1649Y1096D01*
X915Y1095D02*
X950Y1095D01*
X1015Y1095D02*
X1050Y1095D01*
X1115Y1095D02*
X1150Y1095D01*
X1215Y1095D02*
X1250Y1095D01*
X1315Y1095D02*
X1350Y1095D01*
X1415Y1095D02*
X1450Y1095D01*
X1515Y1095D02*
X1550Y1095D01*
X1615Y1095D02*
X1650Y1095D01*
X914Y1094D02*
X951Y1094D01*
X1014Y1094D02*
X1051Y1094D01*
X1114Y1094D02*
X1151Y1094D01*
X1214Y1094D02*
X1251Y1094D01*
X1314Y1094D02*
X1351Y1094D01*
X1414Y1094D02*
X1451Y1094D01*
X1514Y1094D02*
X1551Y1094D01*
X1614Y1094D02*
X1651Y1094D01*
X913Y1093D02*
X952Y1093D01*
X1013Y1093D02*
X1052Y1093D01*
X1113Y1093D02*
X1152Y1093D01*
X1213Y1093D02*
X1252Y1093D01*
X1313Y1093D02*
X1352Y1093D01*
X1413Y1093D02*
X1452Y1093D01*
X1513Y1093D02*
X1552Y1093D01*
X1613Y1093D02*
X1652Y1093D01*
X912Y1092D02*
X953Y1092D01*
X1012Y1092D02*
X1053Y1092D01*
X1112Y1092D02*
X1153Y1092D01*
X1212Y1092D02*
X1253Y1092D01*
X1312Y1092D02*
X1353Y1092D01*
X1412Y1092D02*
X1453Y1092D01*
X1512Y1092D02*
X1553Y1092D01*
X1612Y1092D02*
X1653Y1092D01*
X911Y1091D02*
X954Y1091D01*
X1011Y1091D02*
X1054Y1091D01*
X1111Y1091D02*
X1154Y1091D01*
X1211Y1091D02*
X1254Y1091D01*
X1311Y1091D02*
X1354Y1091D01*
X1411Y1091D02*
X1454Y1091D01*
X1511Y1091D02*
X1554Y1091D01*
X1611Y1091D02*
X1654Y1091D01*
X911Y1090D02*
X954Y1090D01*
X1011Y1090D02*
X1054Y1090D01*
X1111Y1090D02*
X1154Y1090D01*
X1211Y1090D02*
X1254Y1090D01*
X1311Y1090D02*
X1354Y1090D01*
X1411Y1090D02*
X1454Y1090D01*
X1511Y1090D02*
X1554Y1090D01*
X1611Y1090D02*
X1654Y1090D01*
X910Y1089D02*
X955Y1089D01*
X1010Y1089D02*
X1055Y1089D01*
X1110Y1089D02*
X1155Y1089D01*
X1210Y1089D02*
X1255Y1089D01*
X1310Y1089D02*
X1355Y1089D01*
X1410Y1089D02*
X1455Y1089D01*
X1510Y1089D02*
X1555Y1089D01*
X1610Y1089D02*
X1655Y1089D01*
X910Y1088D02*
X955Y1088D01*
X1010Y1088D02*
X1055Y1088D01*
X1110Y1088D02*
X1155Y1088D01*
X1210Y1088D02*
X1255Y1088D01*
X1310Y1088D02*
X1355Y1088D01*
X1410Y1088D02*
X1455Y1088D01*
X1510Y1088D02*
X1555Y1088D01*
X1610Y1088D02*
X1655Y1088D01*
X909Y1087D02*
X956Y1087D01*
X1009Y1087D02*
X1056Y1087D01*
X1109Y1087D02*
X1156Y1087D01*
X1209Y1087D02*
X1256Y1087D01*
X1309Y1087D02*
X1356Y1087D01*
X1409Y1087D02*
X1456Y1087D01*
X1509Y1087D02*
X1556Y1087D01*
X1609Y1087D02*
X1656Y1087D01*
X909Y1086D02*
X956Y1086D01*
X1009Y1086D02*
X1056Y1086D01*
X1109Y1086D02*
X1156Y1086D01*
X1209Y1086D02*
X1256Y1086D01*
X1309Y1086D02*
X1356Y1086D01*
X1409Y1086D02*
X1456Y1086D01*
X1509Y1086D02*
X1556Y1086D01*
X1609Y1086D02*
X1656Y1086D01*
X908Y1085D02*
X957Y1085D01*
X1008Y1085D02*
X1057Y1085D01*
X1108Y1085D02*
X1157Y1085D01*
X1208Y1085D02*
X1257Y1085D01*
X1308Y1085D02*
X1357Y1085D01*
X1408Y1085D02*
X1457Y1085D01*
X1508Y1085D02*
X1557Y1085D01*
X1608Y1085D02*
X1657Y1085D01*
X908Y1084D02*
X957Y1084D01*
X1008Y1084D02*
X1057Y1084D01*
X1108Y1084D02*
X1157Y1084D01*
X1208Y1084D02*
X1257Y1084D01*
X1308Y1084D02*
X1357Y1084D01*
X1408Y1084D02*
X1457Y1084D01*
X1508Y1084D02*
X1557Y1084D01*
X1608Y1084D02*
X1657Y1084D01*
X908Y1083D02*
X957Y1083D01*
X1008Y1083D02*
X1057Y1083D01*
X1108Y1083D02*
X1157Y1083D01*
X1208Y1083D02*
X1257Y1083D01*
X1308Y1083D02*
X1357Y1083D01*
X1408Y1083D02*
X1457Y1083D01*
X1508Y1083D02*
X1557Y1083D01*
X1608Y1083D02*
X1657Y1083D01*
X908Y1082D02*
X957Y1082D01*
X1008Y1082D02*
X1057Y1082D01*
X1108Y1082D02*
X1157Y1082D01*
X1208Y1082D02*
X1257Y1082D01*
X1308Y1082D02*
X1357Y1082D01*
X1408Y1082D02*
X1457Y1082D01*
X1508Y1082D02*
X1557Y1082D01*
X1608Y1082D02*
X1657Y1082D01*
X907Y1081D02*
X958Y1081D01*
X1007Y1081D02*
X1058Y1081D01*
X1107Y1081D02*
X1158Y1081D01*
X1207Y1081D02*
X1258Y1081D01*
X1307Y1081D02*
X1358Y1081D01*
X1407Y1081D02*
X1458Y1081D01*
X1507Y1081D02*
X1558Y1081D01*
X1607Y1081D02*
X1658Y1081D01*
X907Y1080D02*
X958Y1080D01*
X1007Y1080D02*
X1058Y1080D01*
X1107Y1080D02*
X1158Y1080D01*
X1207Y1080D02*
X1258Y1080D01*
X1307Y1080D02*
X1358Y1080D01*
X1407Y1080D02*
X1458Y1080D01*
X1507Y1080D02*
X1558Y1080D01*
X1607Y1080D02*
X1658Y1080D01*
X907Y1079D02*
X958Y1079D01*
X1007Y1079D02*
X1058Y1079D01*
X1107Y1079D02*
X1158Y1079D01*
X1207Y1079D02*
X1258Y1079D01*
X1307Y1079D02*
X1358Y1079D01*
X1407Y1079D02*
X1458Y1079D01*
X1507Y1079D02*
X1558Y1079D01*
X1607Y1079D02*
X1658Y1079D01*
X907Y1078D02*
X958Y1078D01*
X1007Y1078D02*
X1058Y1078D01*
X1107Y1078D02*
X1158Y1078D01*
X1207Y1078D02*
X1258Y1078D01*
X1307Y1078D02*
X1358Y1078D01*
X1407Y1078D02*
X1458Y1078D01*
X1507Y1078D02*
X1558Y1078D01*
X1607Y1078D02*
X1658Y1078D01*
X907Y1077D02*
X958Y1077D01*
X1007Y1077D02*
X1058Y1077D01*
X1107Y1077D02*
X1158Y1077D01*
X1207Y1077D02*
X1258Y1077D01*
X1307Y1077D02*
X1358Y1077D01*
X1407Y1077D02*
X1458Y1077D01*
X1507Y1077D02*
X1558Y1077D01*
X1607Y1077D02*
X1658Y1077D01*
X907Y1076D02*
X958Y1076D01*
X1007Y1076D02*
X1058Y1076D01*
X1107Y1076D02*
X1158Y1076D01*
X1207Y1076D02*
X1258Y1076D01*
X1307Y1076D02*
X1358Y1076D01*
X1407Y1076D02*
X1458Y1076D01*
X1507Y1076D02*
X1558Y1076D01*
X1607Y1076D02*
X1658Y1076D01*
X907Y1075D02*
X958Y1075D01*
X1007Y1075D02*
X1058Y1075D01*
X1107Y1075D02*
X1158Y1075D01*
X1207Y1075D02*
X1258Y1075D01*
X1307Y1075D02*
X1358Y1075D01*
X1407Y1075D02*
X1458Y1075D01*
X1507Y1075D02*
X1558Y1075D01*
X1607Y1075D02*
X1658Y1075D01*
X907Y1074D02*
X958Y1074D01*
X1007Y1074D02*
X1058Y1074D01*
X1107Y1074D02*
X1158Y1074D01*
X1207Y1074D02*
X1258Y1074D01*
X1307Y1074D02*
X1358Y1074D01*
X1407Y1074D02*
X1458Y1074D01*
X1507Y1074D02*
X1558Y1074D01*
X1607Y1074D02*
X1658Y1074D01*
X907Y1073D02*
X958Y1073D01*
X1007Y1073D02*
X1058Y1073D01*
X1107Y1073D02*
X1158Y1073D01*
X1207Y1073D02*
X1258Y1073D01*
X1307Y1073D02*
X1358Y1073D01*
X1407Y1073D02*
X1458Y1073D01*
X1507Y1073D02*
X1558Y1073D01*
X1607Y1073D02*
X1658Y1073D01*
X907Y1072D02*
X958Y1072D01*
X1007Y1072D02*
X1058Y1072D01*
X1107Y1072D02*
X1158Y1072D01*
X1207Y1072D02*
X1258Y1072D01*
X1307Y1072D02*
X1358Y1072D01*
X1407Y1072D02*
X1458Y1072D01*
X1507Y1072D02*
X1558Y1072D01*
X1607Y1072D02*
X1658Y1072D01*
X907Y1071D02*
X958Y1071D01*
X1007Y1071D02*
X1058Y1071D01*
X1107Y1071D02*
X1158Y1071D01*
X1207Y1071D02*
X1258Y1071D01*
X1307Y1071D02*
X1358Y1071D01*
X1407Y1071D02*
X1458Y1071D01*
X1507Y1071D02*
X1558Y1071D01*
X1607Y1071D02*
X1658Y1071D01*
X907Y1070D02*
X958Y1070D01*
X1007Y1070D02*
X1058Y1070D01*
X1107Y1070D02*
X1158Y1070D01*
X1207Y1070D02*
X1258Y1070D01*
X1307Y1070D02*
X1358Y1070D01*
X1407Y1070D02*
X1458Y1070D01*
X1507Y1070D02*
X1558Y1070D01*
X1607Y1070D02*
X1658Y1070D01*
X907Y1069D02*
X958Y1069D01*
X1007Y1069D02*
X1058Y1069D01*
X1107Y1069D02*
X1158Y1069D01*
X1207Y1069D02*
X1258Y1069D01*
X1307Y1069D02*
X1358Y1069D01*
X1407Y1069D02*
X1458Y1069D01*
X1507Y1069D02*
X1558Y1069D01*
X1607Y1069D02*
X1658Y1069D01*
X907Y1068D02*
X958Y1068D01*
X1007Y1068D02*
X1058Y1068D01*
X1107Y1068D02*
X1158Y1068D01*
X1207Y1068D02*
X1258Y1068D01*
X1307Y1068D02*
X1358Y1068D01*
X1407Y1068D02*
X1458Y1068D01*
X1507Y1068D02*
X1558Y1068D01*
X1607Y1068D02*
X1658Y1068D01*
X907Y1067D02*
X958Y1067D01*
X1007Y1067D02*
X1058Y1067D01*
X1107Y1067D02*
X1158Y1067D01*
X1207Y1067D02*
X1258Y1067D01*
X1307Y1067D02*
X1358Y1067D01*
X1407Y1067D02*
X1458Y1067D01*
X1507Y1067D02*
X1558Y1067D01*
X1607Y1067D02*
X1658Y1067D01*
X907Y1066D02*
X928Y1066D01*
X937Y1066D02*
X958Y1066D01*
X1007Y1066D02*
X1028Y1066D01*
X1037Y1066D02*
X1058Y1066D01*
X1107Y1066D02*
X1128Y1066D01*
X1137Y1066D02*
X1158Y1066D01*
X1207Y1066D02*
X1228Y1066D01*
X1237Y1066D02*
X1258Y1066D01*
X1307Y1066D02*
X1328Y1066D01*
X1337Y1066D02*
X1358Y1066D01*
X1407Y1066D02*
X1428Y1066D01*
X1437Y1066D02*
X1458Y1066D01*
X1507Y1066D02*
X1528Y1066D01*
X1537Y1066D02*
X1558Y1066D01*
X1607Y1066D02*
X1628Y1066D01*
X1637Y1066D02*
X1658Y1066D01*
X907Y1065D02*
X925Y1065D01*
X940Y1065D02*
X958Y1065D01*
X1007Y1065D02*
X1025Y1065D01*
X1040Y1065D02*
X1058Y1065D01*
X1107Y1065D02*
X1125Y1065D01*
X1140Y1065D02*
X1158Y1065D01*
X1207Y1065D02*
X1225Y1065D01*
X1240Y1065D02*
X1258Y1065D01*
X1307Y1065D02*
X1325Y1065D01*
X1340Y1065D02*
X1358Y1065D01*
X1407Y1065D02*
X1425Y1065D01*
X1440Y1065D02*
X1458Y1065D01*
X1507Y1065D02*
X1525Y1065D01*
X1540Y1065D02*
X1558Y1065D01*
X1607Y1065D02*
X1625Y1065D01*
X1640Y1065D02*
X1658Y1065D01*
X907Y1064D02*
X923Y1064D01*
X942Y1064D02*
X958Y1064D01*
X1007Y1064D02*
X1023Y1064D01*
X1042Y1064D02*
X1058Y1064D01*
X1107Y1064D02*
X1123Y1064D01*
X1142Y1064D02*
X1158Y1064D01*
X1207Y1064D02*
X1223Y1064D01*
X1242Y1064D02*
X1258Y1064D01*
X1307Y1064D02*
X1323Y1064D01*
X1342Y1064D02*
X1358Y1064D01*
X1407Y1064D02*
X1423Y1064D01*
X1442Y1064D02*
X1458Y1064D01*
X1507Y1064D02*
X1523Y1064D01*
X1542Y1064D02*
X1558Y1064D01*
X1607Y1064D02*
X1623Y1064D01*
X1642Y1064D02*
X1658Y1064D01*
X907Y1063D02*
X922Y1063D01*
X943Y1063D02*
X958Y1063D01*
X1007Y1063D02*
X1022Y1063D01*
X1043Y1063D02*
X1058Y1063D01*
X1107Y1063D02*
X1122Y1063D01*
X1143Y1063D02*
X1158Y1063D01*
X1207Y1063D02*
X1222Y1063D01*
X1243Y1063D02*
X1258Y1063D01*
X1307Y1063D02*
X1322Y1063D01*
X1343Y1063D02*
X1358Y1063D01*
X1407Y1063D02*
X1422Y1063D01*
X1443Y1063D02*
X1458Y1063D01*
X1507Y1063D02*
X1522Y1063D01*
X1543Y1063D02*
X1558Y1063D01*
X1607Y1063D02*
X1622Y1063D01*
X1643Y1063D02*
X1658Y1063D01*
X907Y1062D02*
X921Y1062D01*
X944Y1062D02*
X958Y1062D01*
X1007Y1062D02*
X1021Y1062D01*
X1044Y1062D02*
X1058Y1062D01*
X1107Y1062D02*
X1121Y1062D01*
X1144Y1062D02*
X1158Y1062D01*
X1207Y1062D02*
X1221Y1062D01*
X1244Y1062D02*
X1258Y1062D01*
X1307Y1062D02*
X1321Y1062D01*
X1344Y1062D02*
X1358Y1062D01*
X1407Y1062D02*
X1421Y1062D01*
X1444Y1062D02*
X1458Y1062D01*
X1507Y1062D02*
X1521Y1062D01*
X1544Y1062D02*
X1558Y1062D01*
X1607Y1062D02*
X1621Y1062D01*
X1644Y1062D02*
X1658Y1062D01*
X907Y1061D02*
X920Y1061D01*
X945Y1061D02*
X958Y1061D01*
X1007Y1061D02*
X1020Y1061D01*
X1045Y1061D02*
X1058Y1061D01*
X1107Y1061D02*
X1120Y1061D01*
X1145Y1061D02*
X1158Y1061D01*
X1207Y1061D02*
X1220Y1061D01*
X1245Y1061D02*
X1258Y1061D01*
X1307Y1061D02*
X1320Y1061D01*
X1345Y1061D02*
X1358Y1061D01*
X1407Y1061D02*
X1420Y1061D01*
X1445Y1061D02*
X1458Y1061D01*
X1507Y1061D02*
X1520Y1061D01*
X1545Y1061D02*
X1558Y1061D01*
X1607Y1061D02*
X1620Y1061D01*
X1645Y1061D02*
X1658Y1061D01*
X907Y1060D02*
X919Y1060D01*
X946Y1060D02*
X958Y1060D01*
X1007Y1060D02*
X1019Y1060D01*
X1046Y1060D02*
X1058Y1060D01*
X1107Y1060D02*
X1119Y1060D01*
X1146Y1060D02*
X1158Y1060D01*
X1207Y1060D02*
X1219Y1060D01*
X1246Y1060D02*
X1258Y1060D01*
X1307Y1060D02*
X1319Y1060D01*
X1346Y1060D02*
X1358Y1060D01*
X1407Y1060D02*
X1419Y1060D01*
X1446Y1060D02*
X1458Y1060D01*
X1507Y1060D02*
X1519Y1060D01*
X1546Y1060D02*
X1558Y1060D01*
X1607Y1060D02*
X1619Y1060D01*
X1646Y1060D02*
X1658Y1060D01*
X907Y1059D02*
X918Y1059D01*
X947Y1059D02*
X958Y1059D01*
X1007Y1059D02*
X1018Y1059D01*
X1047Y1059D02*
X1058Y1059D01*
X1107Y1059D02*
X1118Y1059D01*
X1147Y1059D02*
X1158Y1059D01*
X1207Y1059D02*
X1218Y1059D01*
X1247Y1059D02*
X1258Y1059D01*
X1307Y1059D02*
X1318Y1059D01*
X1347Y1059D02*
X1358Y1059D01*
X1407Y1059D02*
X1418Y1059D01*
X1447Y1059D02*
X1458Y1059D01*
X1507Y1059D02*
X1518Y1059D01*
X1547Y1059D02*
X1558Y1059D01*
X1607Y1059D02*
X1618Y1059D01*
X1647Y1059D02*
X1658Y1059D01*
X907Y1058D02*
X918Y1058D01*
X947Y1058D02*
X958Y1058D01*
X1007Y1058D02*
X1018Y1058D01*
X1047Y1058D02*
X1058Y1058D01*
X1107Y1058D02*
X1118Y1058D01*
X1147Y1058D02*
X1158Y1058D01*
X1207Y1058D02*
X1218Y1058D01*
X1247Y1058D02*
X1258Y1058D01*
X1307Y1058D02*
X1318Y1058D01*
X1347Y1058D02*
X1358Y1058D01*
X1407Y1058D02*
X1418Y1058D01*
X1447Y1058D02*
X1458Y1058D01*
X1507Y1058D02*
X1518Y1058D01*
X1547Y1058D02*
X1558Y1058D01*
X1607Y1058D02*
X1618Y1058D01*
X1647Y1058D02*
X1658Y1058D01*
X907Y1057D02*
X917Y1057D01*
X948Y1057D02*
X958Y1057D01*
X1007Y1057D02*
X1017Y1057D01*
X1048Y1057D02*
X1058Y1057D01*
X1107Y1057D02*
X1117Y1057D01*
X1148Y1057D02*
X1158Y1057D01*
X1207Y1057D02*
X1217Y1057D01*
X1248Y1057D02*
X1258Y1057D01*
X1307Y1057D02*
X1317Y1057D01*
X1348Y1057D02*
X1358Y1057D01*
X1407Y1057D02*
X1417Y1057D01*
X1448Y1057D02*
X1458Y1057D01*
X1507Y1057D02*
X1517Y1057D01*
X1548Y1057D02*
X1558Y1057D01*
X1607Y1057D02*
X1617Y1057D01*
X1648Y1057D02*
X1658Y1057D01*
X907Y1056D02*
X917Y1056D01*
X948Y1056D02*
X958Y1056D01*
X1007Y1056D02*
X1017Y1056D01*
X1048Y1056D02*
X1058Y1056D01*
X1107Y1056D02*
X1117Y1056D01*
X1148Y1056D02*
X1158Y1056D01*
X1207Y1056D02*
X1217Y1056D01*
X1248Y1056D02*
X1258Y1056D01*
X1307Y1056D02*
X1317Y1056D01*
X1348Y1056D02*
X1358Y1056D01*
X1407Y1056D02*
X1417Y1056D01*
X1448Y1056D02*
X1458Y1056D01*
X1507Y1056D02*
X1517Y1056D01*
X1548Y1056D02*
X1558Y1056D01*
X1607Y1056D02*
X1617Y1056D01*
X1648Y1056D02*
X1658Y1056D01*
X907Y1055D02*
X917Y1055D01*
X948Y1055D02*
X958Y1055D01*
X1007Y1055D02*
X1017Y1055D01*
X1048Y1055D02*
X1058Y1055D01*
X1107Y1055D02*
X1117Y1055D01*
X1148Y1055D02*
X1158Y1055D01*
X1207Y1055D02*
X1217Y1055D01*
X1248Y1055D02*
X1258Y1055D01*
X1307Y1055D02*
X1317Y1055D01*
X1348Y1055D02*
X1358Y1055D01*
X1407Y1055D02*
X1417Y1055D01*
X1448Y1055D02*
X1458Y1055D01*
X1507Y1055D02*
X1517Y1055D01*
X1548Y1055D02*
X1558Y1055D01*
X1607Y1055D02*
X1617Y1055D01*
X1648Y1055D02*
X1658Y1055D01*
X907Y1054D02*
X916Y1054D01*
X949Y1054D02*
X958Y1054D01*
X1007Y1054D02*
X1016Y1054D01*
X1049Y1054D02*
X1058Y1054D01*
X1107Y1054D02*
X1116Y1054D01*
X1149Y1054D02*
X1158Y1054D01*
X1207Y1054D02*
X1216Y1054D01*
X1249Y1054D02*
X1258Y1054D01*
X1307Y1054D02*
X1316Y1054D01*
X1349Y1054D02*
X1358Y1054D01*
X1407Y1054D02*
X1416Y1054D01*
X1449Y1054D02*
X1458Y1054D01*
X1507Y1054D02*
X1516Y1054D01*
X1549Y1054D02*
X1558Y1054D01*
X1607Y1054D02*
X1616Y1054D01*
X1649Y1054D02*
X1658Y1054D01*
X907Y1053D02*
X916Y1053D01*
X949Y1053D02*
X958Y1053D01*
X1007Y1053D02*
X1016Y1053D01*
X1049Y1053D02*
X1058Y1053D01*
X1107Y1053D02*
X1116Y1053D01*
X1149Y1053D02*
X1158Y1053D01*
X1207Y1053D02*
X1216Y1053D01*
X1249Y1053D02*
X1258Y1053D01*
X1307Y1053D02*
X1316Y1053D01*
X1349Y1053D02*
X1358Y1053D01*
X1407Y1053D02*
X1416Y1053D01*
X1449Y1053D02*
X1458Y1053D01*
X1507Y1053D02*
X1516Y1053D01*
X1549Y1053D02*
X1558Y1053D01*
X1607Y1053D02*
X1616Y1053D01*
X1649Y1053D02*
X1658Y1053D01*
X907Y1052D02*
X916Y1052D01*
X949Y1052D02*
X958Y1052D01*
X1007Y1052D02*
X1016Y1052D01*
X1049Y1052D02*
X1058Y1052D01*
X1107Y1052D02*
X1116Y1052D01*
X1149Y1052D02*
X1158Y1052D01*
X1207Y1052D02*
X1216Y1052D01*
X1249Y1052D02*
X1258Y1052D01*
X1307Y1052D02*
X1316Y1052D01*
X1349Y1052D02*
X1358Y1052D01*
X1407Y1052D02*
X1416Y1052D01*
X1449Y1052D02*
X1458Y1052D01*
X1507Y1052D02*
X1516Y1052D01*
X1549Y1052D02*
X1558Y1052D01*
X1607Y1052D02*
X1616Y1052D01*
X1649Y1052D02*
X1658Y1052D01*
X907Y1051D02*
X916Y1051D01*
X949Y1051D02*
X958Y1051D01*
X1007Y1051D02*
X1016Y1051D01*
X1049Y1051D02*
X1058Y1051D01*
X1107Y1051D02*
X1116Y1051D01*
X1149Y1051D02*
X1158Y1051D01*
X1207Y1051D02*
X1216Y1051D01*
X1249Y1051D02*
X1258Y1051D01*
X1307Y1051D02*
X1316Y1051D01*
X1349Y1051D02*
X1358Y1051D01*
X1407Y1051D02*
X1416Y1051D01*
X1449Y1051D02*
X1458Y1051D01*
X1507Y1051D02*
X1516Y1051D01*
X1549Y1051D02*
X1558Y1051D01*
X1607Y1051D02*
X1616Y1051D01*
X1649Y1051D02*
X1658Y1051D01*
X907Y1050D02*
X916Y1050D01*
X949Y1050D02*
X958Y1050D01*
X1007Y1050D02*
X1016Y1050D01*
X1049Y1050D02*
X1058Y1050D01*
X1107Y1050D02*
X1116Y1050D01*
X1149Y1050D02*
X1158Y1050D01*
X1207Y1050D02*
X1216Y1050D01*
X1249Y1050D02*
X1258Y1050D01*
X1307Y1050D02*
X1316Y1050D01*
X1349Y1050D02*
X1358Y1050D01*
X1407Y1050D02*
X1416Y1050D01*
X1449Y1050D02*
X1458Y1050D01*
X1507Y1050D02*
X1516Y1050D01*
X1549Y1050D02*
X1558Y1050D01*
X1607Y1050D02*
X1616Y1050D01*
X1649Y1050D02*
X1658Y1050D01*
X907Y1049D02*
X916Y1049D01*
X949Y1049D02*
X958Y1049D01*
X1007Y1049D02*
X1016Y1049D01*
X1049Y1049D02*
X1058Y1049D01*
X1107Y1049D02*
X1116Y1049D01*
X1149Y1049D02*
X1158Y1049D01*
X1207Y1049D02*
X1216Y1049D01*
X1249Y1049D02*
X1258Y1049D01*
X1307Y1049D02*
X1316Y1049D01*
X1349Y1049D02*
X1358Y1049D01*
X1407Y1049D02*
X1416Y1049D01*
X1449Y1049D02*
X1458Y1049D01*
X1507Y1049D02*
X1516Y1049D01*
X1549Y1049D02*
X1558Y1049D01*
X1607Y1049D02*
X1616Y1049D01*
X1649Y1049D02*
X1658Y1049D01*
X907Y1048D02*
X916Y1048D01*
X949Y1048D02*
X958Y1048D01*
X1007Y1048D02*
X1016Y1048D01*
X1049Y1048D02*
X1058Y1048D01*
X1107Y1048D02*
X1116Y1048D01*
X1149Y1048D02*
X1158Y1048D01*
X1207Y1048D02*
X1216Y1048D01*
X1249Y1048D02*
X1258Y1048D01*
X1307Y1048D02*
X1316Y1048D01*
X1349Y1048D02*
X1358Y1048D01*
X1407Y1048D02*
X1416Y1048D01*
X1449Y1048D02*
X1458Y1048D01*
X1507Y1048D02*
X1516Y1048D01*
X1549Y1048D02*
X1558Y1048D01*
X1607Y1048D02*
X1616Y1048D01*
X1649Y1048D02*
X1658Y1048D01*
X907Y1047D02*
X917Y1047D01*
X949Y1047D02*
X958Y1047D01*
X1007Y1047D02*
X1017Y1047D01*
X1049Y1047D02*
X1058Y1047D01*
X1107Y1047D02*
X1116Y1047D01*
X1149Y1047D02*
X1158Y1047D01*
X1207Y1047D02*
X1216Y1047D01*
X1249Y1047D02*
X1258Y1047D01*
X1307Y1047D02*
X1316Y1047D01*
X1349Y1047D02*
X1358Y1047D01*
X1407Y1047D02*
X1416Y1047D01*
X1449Y1047D02*
X1458Y1047D01*
X1507Y1047D02*
X1516Y1047D01*
X1549Y1047D02*
X1558Y1047D01*
X1607Y1047D02*
X1616Y1047D01*
X1649Y1047D02*
X1658Y1047D01*
X907Y1046D02*
X917Y1046D01*
X948Y1046D02*
X958Y1046D01*
X1007Y1046D02*
X1017Y1046D01*
X1048Y1046D02*
X1058Y1046D01*
X1107Y1046D02*
X1117Y1046D01*
X1148Y1046D02*
X1158Y1046D01*
X1207Y1046D02*
X1217Y1046D01*
X1248Y1046D02*
X1258Y1046D01*
X1307Y1046D02*
X1317Y1046D01*
X1348Y1046D02*
X1358Y1046D01*
X1407Y1046D02*
X1417Y1046D01*
X1448Y1046D02*
X1458Y1046D01*
X1507Y1046D02*
X1517Y1046D01*
X1548Y1046D02*
X1558Y1046D01*
X1607Y1046D02*
X1617Y1046D01*
X1648Y1046D02*
X1658Y1046D01*
X907Y1045D02*
X917Y1045D01*
X948Y1045D02*
X958Y1045D01*
X1007Y1045D02*
X1017Y1045D01*
X1048Y1045D02*
X1058Y1045D01*
X1107Y1045D02*
X1117Y1045D01*
X1148Y1045D02*
X1158Y1045D01*
X1207Y1045D02*
X1217Y1045D01*
X1248Y1045D02*
X1258Y1045D01*
X1307Y1045D02*
X1317Y1045D01*
X1348Y1045D02*
X1358Y1045D01*
X1407Y1045D02*
X1417Y1045D01*
X1448Y1045D02*
X1458Y1045D01*
X1507Y1045D02*
X1517Y1045D01*
X1548Y1045D02*
X1558Y1045D01*
X1607Y1045D02*
X1617Y1045D01*
X1648Y1045D02*
X1658Y1045D01*
X907Y1044D02*
X918Y1044D01*
X948Y1044D02*
X958Y1044D01*
X1007Y1044D02*
X1018Y1044D01*
X1048Y1044D02*
X1058Y1044D01*
X1107Y1044D02*
X1118Y1044D01*
X1148Y1044D02*
X1158Y1044D01*
X1207Y1044D02*
X1218Y1044D01*
X1248Y1044D02*
X1258Y1044D01*
X1307Y1044D02*
X1318Y1044D01*
X1348Y1044D02*
X1358Y1044D01*
X1407Y1044D02*
X1417Y1044D01*
X1448Y1044D02*
X1458Y1044D01*
X1507Y1044D02*
X1517Y1044D01*
X1548Y1044D02*
X1558Y1044D01*
X1607Y1044D02*
X1617Y1044D01*
X1648Y1044D02*
X1658Y1044D01*
X907Y1043D02*
X918Y1043D01*
X947Y1043D02*
X958Y1043D01*
X1007Y1043D02*
X1018Y1043D01*
X1047Y1043D02*
X1058Y1043D01*
X1107Y1043D02*
X1118Y1043D01*
X1147Y1043D02*
X1158Y1043D01*
X1207Y1043D02*
X1218Y1043D01*
X1247Y1043D02*
X1258Y1043D01*
X1307Y1043D02*
X1318Y1043D01*
X1347Y1043D02*
X1358Y1043D01*
X1407Y1043D02*
X1418Y1043D01*
X1447Y1043D02*
X1458Y1043D01*
X1507Y1043D02*
X1518Y1043D01*
X1547Y1043D02*
X1558Y1043D01*
X1607Y1043D02*
X1618Y1043D01*
X1647Y1043D02*
X1658Y1043D01*
X907Y1042D02*
X919Y1042D01*
X946Y1042D02*
X958Y1042D01*
X1007Y1042D02*
X1019Y1042D01*
X1046Y1042D02*
X1058Y1042D01*
X1107Y1042D02*
X1119Y1042D01*
X1146Y1042D02*
X1158Y1042D01*
X1207Y1042D02*
X1219Y1042D01*
X1246Y1042D02*
X1258Y1042D01*
X1307Y1042D02*
X1319Y1042D01*
X1346Y1042D02*
X1358Y1042D01*
X1407Y1042D02*
X1419Y1042D01*
X1446Y1042D02*
X1458Y1042D01*
X1507Y1042D02*
X1519Y1042D01*
X1546Y1042D02*
X1558Y1042D01*
X1607Y1042D02*
X1619Y1042D01*
X1646Y1042D02*
X1658Y1042D01*
X907Y1041D02*
X919Y1041D01*
X946Y1041D02*
X958Y1041D01*
X1007Y1041D02*
X1019Y1041D01*
X1046Y1041D02*
X1058Y1041D01*
X1107Y1041D02*
X1119Y1041D01*
X1146Y1041D02*
X1158Y1041D01*
X1207Y1041D02*
X1219Y1041D01*
X1246Y1041D02*
X1258Y1041D01*
X1307Y1041D02*
X1319Y1041D01*
X1346Y1041D02*
X1358Y1041D01*
X1407Y1041D02*
X1419Y1041D01*
X1446Y1041D02*
X1458Y1041D01*
X1507Y1041D02*
X1519Y1041D01*
X1546Y1041D02*
X1558Y1041D01*
X1607Y1041D02*
X1619Y1041D01*
X1646Y1041D02*
X1658Y1041D01*
X907Y1040D02*
X920Y1040D01*
X945Y1040D02*
X958Y1040D01*
X1007Y1040D02*
X1020Y1040D01*
X1045Y1040D02*
X1058Y1040D01*
X1107Y1040D02*
X1120Y1040D01*
X1145Y1040D02*
X1158Y1040D01*
X1207Y1040D02*
X1220Y1040D01*
X1245Y1040D02*
X1258Y1040D01*
X1307Y1040D02*
X1320Y1040D01*
X1345Y1040D02*
X1358Y1040D01*
X1407Y1040D02*
X1420Y1040D01*
X1445Y1040D02*
X1458Y1040D01*
X1507Y1040D02*
X1520Y1040D01*
X1545Y1040D02*
X1558Y1040D01*
X1607Y1040D02*
X1620Y1040D01*
X1645Y1040D02*
X1658Y1040D01*
X907Y1039D02*
X921Y1039D01*
X944Y1039D02*
X958Y1039D01*
X1007Y1039D02*
X1021Y1039D01*
X1044Y1039D02*
X1058Y1039D01*
X1107Y1039D02*
X1121Y1039D01*
X1144Y1039D02*
X1158Y1039D01*
X1207Y1039D02*
X1221Y1039D01*
X1244Y1039D02*
X1258Y1039D01*
X1307Y1039D02*
X1321Y1039D01*
X1344Y1039D02*
X1358Y1039D01*
X1407Y1039D02*
X1421Y1039D01*
X1444Y1039D02*
X1458Y1039D01*
X1507Y1039D02*
X1521Y1039D01*
X1544Y1039D02*
X1558Y1039D01*
X1607Y1039D02*
X1621Y1039D01*
X1644Y1039D02*
X1658Y1039D01*
X907Y1038D02*
X922Y1038D01*
X943Y1038D02*
X958Y1038D01*
X1007Y1038D02*
X1022Y1038D01*
X1043Y1038D02*
X1058Y1038D01*
X1107Y1038D02*
X1122Y1038D01*
X1143Y1038D02*
X1158Y1038D01*
X1207Y1038D02*
X1222Y1038D01*
X1243Y1038D02*
X1258Y1038D01*
X1307Y1038D02*
X1322Y1038D01*
X1343Y1038D02*
X1358Y1038D01*
X1407Y1038D02*
X1422Y1038D01*
X1443Y1038D02*
X1458Y1038D01*
X1507Y1038D02*
X1522Y1038D01*
X1543Y1038D02*
X1558Y1038D01*
X1607Y1038D02*
X1622Y1038D01*
X1643Y1038D02*
X1658Y1038D01*
X907Y1037D02*
X924Y1037D01*
X941Y1037D02*
X958Y1037D01*
X1007Y1037D02*
X1024Y1037D01*
X1041Y1037D02*
X1058Y1037D01*
X1107Y1037D02*
X1124Y1037D01*
X1141Y1037D02*
X1158Y1037D01*
X1207Y1037D02*
X1224Y1037D01*
X1241Y1037D02*
X1258Y1037D01*
X1307Y1037D02*
X1324Y1037D01*
X1341Y1037D02*
X1358Y1037D01*
X1407Y1037D02*
X1424Y1037D01*
X1441Y1037D02*
X1458Y1037D01*
X1507Y1037D02*
X1524Y1037D01*
X1541Y1037D02*
X1558Y1037D01*
X1607Y1037D02*
X1624Y1037D01*
X1641Y1037D02*
X1658Y1037D01*
X907Y1036D02*
X926Y1036D01*
X939Y1036D02*
X958Y1036D01*
X1007Y1036D02*
X1026Y1036D01*
X1039Y1036D02*
X1058Y1036D01*
X1107Y1036D02*
X1126Y1036D01*
X1139Y1036D02*
X1158Y1036D01*
X1207Y1036D02*
X1226Y1036D01*
X1239Y1036D02*
X1258Y1036D01*
X1307Y1036D02*
X1326Y1036D01*
X1339Y1036D02*
X1358Y1036D01*
X1407Y1036D02*
X1426Y1036D01*
X1439Y1036D02*
X1458Y1036D01*
X1507Y1036D02*
X1526Y1036D01*
X1539Y1036D02*
X1558Y1036D01*
X1607Y1036D02*
X1626Y1036D01*
X1639Y1036D02*
X1658Y1036D01*
X907Y1035D02*
X929Y1035D01*
X936Y1035D02*
X958Y1035D01*
X1007Y1035D02*
X1029Y1035D01*
X1036Y1035D02*
X1058Y1035D01*
X1107Y1035D02*
X1129Y1035D01*
X1136Y1035D02*
X1158Y1035D01*
X1207Y1035D02*
X1229Y1035D01*
X1236Y1035D02*
X1258Y1035D01*
X1307Y1035D02*
X1329Y1035D01*
X1336Y1035D02*
X1358Y1035D01*
X1407Y1035D02*
X1429Y1035D01*
X1436Y1035D02*
X1458Y1035D01*
X1507Y1035D02*
X1529Y1035D01*
X1536Y1035D02*
X1558Y1035D01*
X1607Y1035D02*
X1629Y1035D01*
X1636Y1035D02*
X1658Y1035D01*
X907Y1034D02*
X958Y1034D01*
X1007Y1034D02*
X1058Y1034D01*
X1107Y1034D02*
X1158Y1034D01*
X1207Y1034D02*
X1258Y1034D01*
X1307Y1034D02*
X1358Y1034D01*
X1407Y1034D02*
X1458Y1034D01*
X1507Y1034D02*
X1558Y1034D01*
X1607Y1034D02*
X1658Y1034D01*
X907Y1033D02*
X958Y1033D01*
X1007Y1033D02*
X1058Y1033D01*
X1107Y1033D02*
X1158Y1033D01*
X1207Y1033D02*
X1258Y1033D01*
X1307Y1033D02*
X1358Y1033D01*
X1407Y1033D02*
X1458Y1033D01*
X1507Y1033D02*
X1558Y1033D01*
X1607Y1033D02*
X1658Y1033D01*
X907Y1032D02*
X958Y1032D01*
X1007Y1032D02*
X1058Y1032D01*
X1107Y1032D02*
X1158Y1032D01*
X1207Y1032D02*
X1258Y1032D01*
X1307Y1032D02*
X1358Y1032D01*
X1407Y1032D02*
X1458Y1032D01*
X1507Y1032D02*
X1558Y1032D01*
X1607Y1032D02*
X1658Y1032D01*
X907Y1031D02*
X958Y1031D01*
X1007Y1031D02*
X1058Y1031D01*
X1107Y1031D02*
X1158Y1031D01*
X1207Y1031D02*
X1258Y1031D01*
X1307Y1031D02*
X1358Y1031D01*
X1407Y1031D02*
X1458Y1031D01*
X1507Y1031D02*
X1558Y1031D01*
X1607Y1031D02*
X1658Y1031D01*
X907Y1030D02*
X958Y1030D01*
X1007Y1030D02*
X1058Y1030D01*
X1107Y1030D02*
X1158Y1030D01*
X1207Y1030D02*
X1258Y1030D01*
X1307Y1030D02*
X1358Y1030D01*
X1407Y1030D02*
X1458Y1030D01*
X1507Y1030D02*
X1558Y1030D01*
X1607Y1030D02*
X1658Y1030D01*
X907Y1029D02*
X958Y1029D01*
X1007Y1029D02*
X1058Y1029D01*
X1107Y1029D02*
X1158Y1029D01*
X1207Y1029D02*
X1258Y1029D01*
X1307Y1029D02*
X1358Y1029D01*
X1407Y1029D02*
X1458Y1029D01*
X1507Y1029D02*
X1558Y1029D01*
X1607Y1029D02*
X1658Y1029D01*
X907Y1028D02*
X958Y1028D01*
X1007Y1028D02*
X1058Y1028D01*
X1107Y1028D02*
X1158Y1028D01*
X1207Y1028D02*
X1258Y1028D01*
X1307Y1028D02*
X1358Y1028D01*
X1407Y1028D02*
X1458Y1028D01*
X1507Y1028D02*
X1558Y1028D01*
X1607Y1028D02*
X1658Y1028D01*
X907Y1027D02*
X958Y1027D01*
X1007Y1027D02*
X1058Y1027D01*
X1107Y1027D02*
X1158Y1027D01*
X1207Y1027D02*
X1258Y1027D01*
X1307Y1027D02*
X1358Y1027D01*
X1407Y1027D02*
X1458Y1027D01*
X1507Y1027D02*
X1558Y1027D01*
X1607Y1027D02*
X1658Y1027D01*
X907Y1026D02*
X958Y1026D01*
X1007Y1026D02*
X1058Y1026D01*
X1107Y1026D02*
X1158Y1026D01*
X1207Y1026D02*
X1258Y1026D01*
X1307Y1026D02*
X1358Y1026D01*
X1407Y1026D02*
X1458Y1026D01*
X1507Y1026D02*
X1558Y1026D01*
X1607Y1026D02*
X1658Y1026D01*
X907Y1025D02*
X958Y1025D01*
X1007Y1025D02*
X1058Y1025D01*
X1107Y1025D02*
X1158Y1025D01*
X1207Y1025D02*
X1258Y1025D01*
X1307Y1025D02*
X1358Y1025D01*
X1407Y1025D02*
X1458Y1025D01*
X1507Y1025D02*
X1558Y1025D01*
X1607Y1025D02*
X1658Y1025D01*
X907Y1024D02*
X958Y1024D01*
X1007Y1024D02*
X1058Y1024D01*
X1107Y1024D02*
X1158Y1024D01*
X1207Y1024D02*
X1258Y1024D01*
X1307Y1024D02*
X1358Y1024D01*
X1407Y1024D02*
X1458Y1024D01*
X1507Y1024D02*
X1558Y1024D01*
X1607Y1024D02*
X1658Y1024D01*
X907Y1023D02*
X958Y1023D01*
X1007Y1023D02*
X1058Y1023D01*
X1107Y1023D02*
X1158Y1023D01*
X1207Y1023D02*
X1258Y1023D01*
X1307Y1023D02*
X1358Y1023D01*
X1407Y1023D02*
X1458Y1023D01*
X1507Y1023D02*
X1558Y1023D01*
X1607Y1023D02*
X1658Y1023D01*
X907Y1022D02*
X958Y1022D01*
X1007Y1022D02*
X1058Y1022D01*
X1107Y1022D02*
X1158Y1022D01*
X1207Y1022D02*
X1258Y1022D01*
X1307Y1022D02*
X1358Y1022D01*
X1407Y1022D02*
X1458Y1022D01*
X1507Y1022D02*
X1558Y1022D01*
X1607Y1022D02*
X1658Y1022D01*
X907Y1021D02*
X958Y1021D01*
X1007Y1021D02*
X1058Y1021D01*
X1107Y1021D02*
X1158Y1021D01*
X1207Y1021D02*
X1258Y1021D01*
X1307Y1021D02*
X1358Y1021D01*
X1407Y1021D02*
X1458Y1021D01*
X1507Y1021D02*
X1558Y1021D01*
X1607Y1021D02*
X1658Y1021D01*
X907Y1020D02*
X958Y1020D01*
X1007Y1020D02*
X1058Y1020D01*
X1107Y1020D02*
X1158Y1020D01*
X1207Y1020D02*
X1258Y1020D01*
X1307Y1020D02*
X1358Y1020D01*
X1407Y1020D02*
X1458Y1020D01*
X1507Y1020D02*
X1558Y1020D01*
X1607Y1020D02*
X1658Y1020D01*
X908Y1019D02*
X957Y1019D01*
X1008Y1019D02*
X1057Y1019D01*
X1108Y1019D02*
X1157Y1019D01*
X1208Y1019D02*
X1257Y1019D01*
X1308Y1019D02*
X1357Y1019D01*
X1408Y1019D02*
X1457Y1019D01*
X1508Y1019D02*
X1557Y1019D01*
X1608Y1019D02*
X1657Y1019D01*
X908Y1018D02*
X957Y1018D01*
X1008Y1018D02*
X1057Y1018D01*
X1108Y1018D02*
X1157Y1018D01*
X1208Y1018D02*
X1257Y1018D01*
X1308Y1018D02*
X1357Y1018D01*
X1408Y1018D02*
X1457Y1018D01*
X1508Y1018D02*
X1557Y1018D01*
X1608Y1018D02*
X1657Y1018D01*
X908Y1017D02*
X957Y1017D01*
X1008Y1017D02*
X1057Y1017D01*
X1108Y1017D02*
X1157Y1017D01*
X1208Y1017D02*
X1257Y1017D01*
X1308Y1017D02*
X1357Y1017D01*
X1408Y1017D02*
X1457Y1017D01*
X1508Y1017D02*
X1557Y1017D01*
X1608Y1017D02*
X1657Y1017D01*
X909Y1016D02*
X957Y1016D01*
X1009Y1016D02*
X1057Y1016D01*
X1109Y1016D02*
X1157Y1016D01*
X1209Y1016D02*
X1257Y1016D01*
X1309Y1016D02*
X1357Y1016D01*
X1408Y1016D02*
X1457Y1016D01*
X1508Y1016D02*
X1556Y1016D01*
X1608Y1016D02*
X1656Y1016D01*
X909Y1015D02*
X956Y1015D01*
X1009Y1015D02*
X1056Y1015D01*
X1109Y1015D02*
X1156Y1015D01*
X1209Y1015D02*
X1256Y1015D01*
X1309Y1015D02*
X1356Y1015D01*
X1409Y1015D02*
X1456Y1015D01*
X1509Y1015D02*
X1556Y1015D01*
X1609Y1015D02*
X1656Y1015D01*
X909Y1014D02*
X956Y1014D01*
X1009Y1014D02*
X1056Y1014D01*
X1109Y1014D02*
X1156Y1014D01*
X1209Y1014D02*
X1256Y1014D01*
X1309Y1014D02*
X1356Y1014D01*
X1409Y1014D02*
X1456Y1014D01*
X1509Y1014D02*
X1556Y1014D01*
X1609Y1014D02*
X1656Y1014D01*
X910Y1013D02*
X955Y1013D01*
X1010Y1013D02*
X1055Y1013D01*
X1110Y1013D02*
X1155Y1013D01*
X1210Y1013D02*
X1255Y1013D01*
X1310Y1013D02*
X1355Y1013D01*
X1410Y1013D02*
X1455Y1013D01*
X1510Y1013D02*
X1555Y1013D01*
X1610Y1013D02*
X1655Y1013D01*
X910Y1012D02*
X955Y1012D01*
X1010Y1012D02*
X1055Y1012D01*
X1110Y1012D02*
X1155Y1012D01*
X1210Y1012D02*
X1255Y1012D01*
X1310Y1012D02*
X1355Y1012D01*
X1410Y1012D02*
X1455Y1012D01*
X1510Y1012D02*
X1555Y1012D01*
X1610Y1012D02*
X1655Y1012D01*
X911Y1011D02*
X954Y1011D01*
X1011Y1011D02*
X1054Y1011D01*
X1111Y1011D02*
X1154Y1011D01*
X1211Y1011D02*
X1254Y1011D01*
X1311Y1011D02*
X1354Y1011D01*
X1411Y1011D02*
X1454Y1011D01*
X1511Y1011D02*
X1554Y1011D01*
X1611Y1011D02*
X1654Y1011D01*
X912Y1010D02*
X954Y1010D01*
X1012Y1010D02*
X1054Y1010D01*
X1112Y1010D02*
X1153Y1010D01*
X1212Y1010D02*
X1253Y1010D01*
X1312Y1010D02*
X1353Y1010D01*
X1412Y1010D02*
X1453Y1010D01*
X1512Y1010D02*
X1553Y1010D01*
X1612Y1010D02*
X1653Y1010D01*
X912Y1009D02*
X953Y1009D01*
X1012Y1009D02*
X1053Y1009D01*
X1112Y1009D02*
X1153Y1009D01*
X1212Y1009D02*
X1253Y1009D01*
X1312Y1009D02*
X1353Y1009D01*
X1412Y1009D02*
X1453Y1009D01*
X1512Y1009D02*
X1553Y1009D01*
X1612Y1009D02*
X1653Y1009D01*
X913Y1008D02*
X952Y1008D01*
X1013Y1008D02*
X1052Y1008D01*
X1113Y1008D02*
X1152Y1008D01*
X1213Y1008D02*
X1252Y1008D01*
X1313Y1008D02*
X1352Y1008D01*
X1413Y1008D02*
X1452Y1008D01*
X1513Y1008D02*
X1552Y1008D01*
X1613Y1008D02*
X1652Y1008D01*
X914Y1007D02*
X951Y1007D01*
X1014Y1007D02*
X1051Y1007D01*
X1114Y1007D02*
X1151Y1007D01*
X1214Y1007D02*
X1251Y1007D01*
X1314Y1007D02*
X1351Y1007D01*
X1414Y1007D02*
X1451Y1007D01*
X1514Y1007D02*
X1551Y1007D01*
X1614Y1007D02*
X1651Y1007D01*
X915Y1006D02*
X950Y1006D01*
X1015Y1006D02*
X1050Y1006D01*
X1115Y1006D02*
X1150Y1006D01*
X1215Y1006D02*
X1250Y1006D01*
X1315Y1006D02*
X1350Y1006D01*
X1415Y1006D02*
X1450Y1006D01*
X1515Y1006D02*
X1550Y1006D01*
X1615Y1006D02*
X1650Y1006D01*
X916Y1005D02*
X949Y1005D01*
X1016Y1005D02*
X1049Y1005D01*
X1116Y1005D02*
X1149Y1005D01*
X1216Y1005D02*
X1249Y1005D01*
X1316Y1005D02*
X1349Y1005D01*
X1416Y1005D02*
X1449Y1005D01*
X1516Y1005D02*
X1549Y1005D01*
X1616Y1005D02*
X1649Y1005D01*
X917Y1004D02*
X948Y1004D01*
X1017Y1004D02*
X1048Y1004D01*
X1117Y1004D02*
X1148Y1004D01*
X1217Y1004D02*
X1248Y1004D01*
X1317Y1004D02*
X1348Y1004D01*
X1417Y1004D02*
X1448Y1004D01*
X1517Y1004D02*
X1548Y1004D01*
X1617Y1004D02*
X1648Y1004D01*
X919Y1003D02*
X946Y1003D01*
X1019Y1003D02*
X1046Y1003D01*
X1119Y1003D02*
X1146Y1003D01*
X1219Y1003D02*
X1246Y1003D01*
X1319Y1003D02*
X1346Y1003D01*
X1419Y1003D02*
X1446Y1003D01*
X1519Y1003D02*
X1546Y1003D01*
X1619Y1003D02*
X1646Y1003D01*
X921Y1002D02*
X945Y1002D01*
X1020Y1002D02*
X1045Y1002D01*
X1120Y1002D02*
X1145Y1002D01*
X1220Y1002D02*
X1245Y1002D01*
X1320Y1002D02*
X1345Y1002D01*
X1420Y1002D02*
X1445Y1002D01*
X1520Y1002D02*
X1545Y1002D01*
X1620Y1002D02*
X1645Y1002D01*
X922Y1001D02*
X943Y1001D01*
X1022Y1001D02*
X1043Y1001D01*
X1122Y1001D02*
X1143Y1001D01*
X1222Y1001D02*
X1243Y1001D01*
X1322Y1001D02*
X1343Y1001D01*
X1422Y1001D02*
X1443Y1001D01*
X1522Y1001D02*
X1543Y1001D01*
X1622Y1001D02*
X1643Y1001D01*
X925Y1000D02*
X940Y1000D01*
X1025Y1000D02*
X1040Y1000D01*
X1125Y1000D02*
X1140Y1000D01*
X1225Y1000D02*
X1240Y1000D01*
X1325Y1000D02*
X1340Y1000D01*
X1425Y1000D02*
X1440Y1000D01*
X1525Y1000D02*
X1540Y1000D01*
X1625Y1000D02*
X1640Y1000D01*
X929Y999D02*
X936Y999D01*
X1029Y999D02*
X1036Y999D01*
X1129Y999D02*
X1136Y999D01*
X1229Y999D02*
X1236Y999D01*
X1329Y999D02*
X1336Y999D01*
X1429Y999D02*
X1436Y999D01*
X1529Y999D02*
X1536Y999D01*
X1629Y999D02*
X1636Y999D01*
X927Y802D02*
X938Y802D01*
X1027Y802D02*
X1038Y802D01*
X1127Y802D02*
X1138Y802D01*
X1227Y802D02*
X1238Y802D01*
X1327Y802D02*
X1338Y802D01*
X1427Y802D02*
X1438Y802D01*
X1527Y802D02*
X1538Y802D01*
X1627Y802D02*
X1638Y802D01*
X924Y801D02*
X941Y801D01*
X1024Y801D02*
X1041Y801D01*
X1124Y801D02*
X1141Y801D01*
X1224Y801D02*
X1241Y801D01*
X1324Y801D02*
X1341Y801D01*
X1424Y801D02*
X1441Y801D01*
X1524Y801D02*
X1541Y801D01*
X1624Y801D02*
X1641Y801D01*
X922Y800D02*
X943Y800D01*
X1022Y800D02*
X1043Y800D01*
X1122Y800D02*
X1143Y800D01*
X1222Y800D02*
X1243Y800D01*
X1322Y800D02*
X1343Y800D01*
X1422Y800D02*
X1443Y800D01*
X1522Y800D02*
X1543Y800D01*
X1622Y800D02*
X1643Y800D01*
X920Y799D02*
X945Y799D01*
X1020Y799D02*
X1045Y799D01*
X1120Y799D02*
X1145Y799D01*
X1220Y799D02*
X1245Y799D01*
X1320Y799D02*
X1345Y799D01*
X1420Y799D02*
X1445Y799D01*
X1520Y799D02*
X1545Y799D01*
X1620Y799D02*
X1645Y799D01*
X918Y798D02*
X947Y798D01*
X1018Y798D02*
X1047Y798D01*
X1118Y798D02*
X1147Y798D01*
X1218Y798D02*
X1247Y798D01*
X1318Y798D02*
X1347Y798D01*
X1418Y798D02*
X1447Y798D01*
X1518Y798D02*
X1547Y798D01*
X1618Y798D02*
X1647Y798D01*
X917Y797D02*
X948Y797D01*
X1017Y797D02*
X1048Y797D01*
X1117Y797D02*
X1148Y797D01*
X1217Y797D02*
X1248Y797D01*
X1317Y797D02*
X1348Y797D01*
X1417Y797D02*
X1448Y797D01*
X1517Y797D02*
X1548Y797D01*
X1617Y797D02*
X1648Y797D01*
X916Y796D02*
X949Y796D01*
X1016Y796D02*
X1049Y796D01*
X1116Y796D02*
X1149Y796D01*
X1216Y796D02*
X1249Y796D01*
X1316Y796D02*
X1349Y796D01*
X1416Y796D02*
X1449Y796D01*
X1516Y796D02*
X1549Y796D01*
X1616Y796D02*
X1649Y796D01*
X915Y795D02*
X950Y795D01*
X1015Y795D02*
X1050Y795D01*
X1115Y795D02*
X1150Y795D01*
X1215Y795D02*
X1250Y795D01*
X1315Y795D02*
X1350Y795D01*
X1415Y795D02*
X1450Y795D01*
X1515Y795D02*
X1550Y795D01*
X1615Y795D02*
X1650Y795D01*
X914Y794D02*
X951Y794D01*
X1014Y794D02*
X1051Y794D01*
X1114Y794D02*
X1151Y794D01*
X1214Y794D02*
X1251Y794D01*
X1314Y794D02*
X1351Y794D01*
X1414Y794D02*
X1451Y794D01*
X1514Y794D02*
X1551Y794D01*
X1614Y794D02*
X1651Y794D01*
X913Y793D02*
X952Y793D01*
X1013Y793D02*
X1052Y793D01*
X1113Y793D02*
X1152Y793D01*
X1213Y793D02*
X1252Y793D01*
X1313Y793D02*
X1352Y793D01*
X1413Y793D02*
X1452Y793D01*
X1513Y793D02*
X1552Y793D01*
X1613Y793D02*
X1652Y793D01*
X912Y792D02*
X953Y792D01*
X1012Y792D02*
X1053Y792D01*
X1112Y792D02*
X1153Y792D01*
X1212Y792D02*
X1253Y792D01*
X1312Y792D02*
X1353Y792D01*
X1412Y792D02*
X1453Y792D01*
X1512Y792D02*
X1553Y792D01*
X1612Y792D02*
X1653Y792D01*
X911Y791D02*
X954Y791D01*
X1011Y791D02*
X1054Y791D01*
X1111Y791D02*
X1154Y791D01*
X1211Y791D02*
X1254Y791D01*
X1311Y791D02*
X1354Y791D01*
X1411Y791D02*
X1454Y791D01*
X1511Y791D02*
X1554Y791D01*
X1611Y791D02*
X1654Y791D01*
X911Y790D02*
X954Y790D01*
X1011Y790D02*
X1054Y790D01*
X1111Y790D02*
X1154Y790D01*
X1211Y790D02*
X1254Y790D01*
X1311Y790D02*
X1354Y790D01*
X1411Y790D02*
X1454Y790D01*
X1511Y790D02*
X1554Y790D01*
X1611Y790D02*
X1654Y790D01*
X910Y789D02*
X955Y789D01*
X1010Y789D02*
X1055Y789D01*
X1110Y789D02*
X1155Y789D01*
X1210Y789D02*
X1255Y789D01*
X1310Y789D02*
X1355Y789D01*
X1410Y789D02*
X1455Y789D01*
X1510Y789D02*
X1555Y789D01*
X1610Y789D02*
X1655Y789D01*
X910Y788D02*
X955Y788D01*
X1010Y788D02*
X1055Y788D01*
X1110Y788D02*
X1155Y788D01*
X1210Y788D02*
X1255Y788D01*
X1310Y788D02*
X1355Y788D01*
X1410Y788D02*
X1455Y788D01*
X1510Y788D02*
X1555Y788D01*
X1610Y788D02*
X1655Y788D01*
X909Y787D02*
X956Y787D01*
X1009Y787D02*
X1056Y787D01*
X1109Y787D02*
X1156Y787D01*
X1209Y787D02*
X1256Y787D01*
X1309Y787D02*
X1356Y787D01*
X1409Y787D02*
X1456Y787D01*
X1509Y787D02*
X1556Y787D01*
X1609Y787D02*
X1656Y787D01*
X909Y786D02*
X956Y786D01*
X1009Y786D02*
X1056Y786D01*
X1109Y786D02*
X1156Y786D01*
X1209Y786D02*
X1256Y786D01*
X1309Y786D02*
X1356Y786D01*
X1409Y786D02*
X1456Y786D01*
X1509Y786D02*
X1556Y786D01*
X1609Y786D02*
X1656Y786D01*
X908Y785D02*
X957Y785D01*
X1008Y785D02*
X1057Y785D01*
X1108Y785D02*
X1157Y785D01*
X1208Y785D02*
X1257Y785D01*
X1308Y785D02*
X1357Y785D01*
X1408Y785D02*
X1457Y785D01*
X1508Y785D02*
X1557Y785D01*
X1608Y785D02*
X1657Y785D01*
X908Y784D02*
X957Y784D01*
X1008Y784D02*
X1057Y784D01*
X1108Y784D02*
X1157Y784D01*
X1208Y784D02*
X1257Y784D01*
X1308Y784D02*
X1357Y784D01*
X1408Y784D02*
X1457Y784D01*
X1508Y784D02*
X1557Y784D01*
X1608Y784D02*
X1657Y784D01*
X908Y783D02*
X957Y783D01*
X1008Y783D02*
X1057Y783D01*
X1108Y783D02*
X1157Y783D01*
X1208Y783D02*
X1257Y783D01*
X1308Y783D02*
X1357Y783D01*
X1408Y783D02*
X1457Y783D01*
X1508Y783D02*
X1557Y783D01*
X1608Y783D02*
X1657Y783D01*
X908Y782D02*
X958Y782D01*
X1008Y782D02*
X1057Y782D01*
X1108Y782D02*
X1157Y782D01*
X1208Y782D02*
X1257Y782D01*
X1308Y782D02*
X1357Y782D01*
X1408Y782D02*
X1457Y782D01*
X1508Y782D02*
X1557Y782D01*
X1608Y782D02*
X1657Y782D01*
X907Y781D02*
X958Y781D01*
X1007Y781D02*
X1058Y781D01*
X1107Y781D02*
X1158Y781D01*
X1207Y781D02*
X1258Y781D01*
X1307Y781D02*
X1358Y781D01*
X1407Y781D02*
X1458Y781D01*
X1507Y781D02*
X1558Y781D01*
X1607Y781D02*
X1658Y781D01*
X907Y780D02*
X958Y780D01*
X1007Y780D02*
X1058Y780D01*
X1107Y780D02*
X1158Y780D01*
X1207Y780D02*
X1258Y780D01*
X1307Y780D02*
X1358Y780D01*
X1407Y780D02*
X1458Y780D01*
X1507Y780D02*
X1558Y780D01*
X1607Y780D02*
X1658Y780D01*
X907Y779D02*
X958Y779D01*
X1007Y779D02*
X1058Y779D01*
X1107Y779D02*
X1158Y779D01*
X1207Y779D02*
X1258Y779D01*
X1307Y779D02*
X1358Y779D01*
X1407Y779D02*
X1458Y779D01*
X1507Y779D02*
X1558Y779D01*
X1607Y779D02*
X1658Y779D01*
X907Y778D02*
X958Y778D01*
X1007Y778D02*
X1058Y778D01*
X1107Y778D02*
X1158Y778D01*
X1207Y778D02*
X1258Y778D01*
X1307Y778D02*
X1358Y778D01*
X1407Y778D02*
X1458Y778D01*
X1507Y778D02*
X1558Y778D01*
X1607Y778D02*
X1658Y778D01*
X907Y777D02*
X958Y777D01*
X1007Y777D02*
X1058Y777D01*
X1107Y777D02*
X1158Y777D01*
X1207Y777D02*
X1258Y777D01*
X1307Y777D02*
X1358Y777D01*
X1407Y777D02*
X1458Y777D01*
X1507Y777D02*
X1558Y777D01*
X1607Y777D02*
X1658Y777D01*
X907Y776D02*
X958Y776D01*
X1007Y776D02*
X1058Y776D01*
X1107Y776D02*
X1158Y776D01*
X1207Y776D02*
X1258Y776D01*
X1307Y776D02*
X1358Y776D01*
X1407Y776D02*
X1458Y776D01*
X1507Y776D02*
X1558Y776D01*
X1607Y776D02*
X1658Y776D01*
X907Y775D02*
X958Y775D01*
X1007Y775D02*
X1058Y775D01*
X1107Y775D02*
X1158Y775D01*
X1207Y775D02*
X1258Y775D01*
X1307Y775D02*
X1358Y775D01*
X1407Y775D02*
X1458Y775D01*
X1507Y775D02*
X1558Y775D01*
X1607Y775D02*
X1658Y775D01*
X907Y774D02*
X958Y774D01*
X1007Y774D02*
X1058Y774D01*
X1107Y774D02*
X1158Y774D01*
X1207Y774D02*
X1258Y774D01*
X1307Y774D02*
X1358Y774D01*
X1407Y774D02*
X1458Y774D01*
X1507Y774D02*
X1558Y774D01*
X1607Y774D02*
X1658Y774D01*
X907Y773D02*
X958Y773D01*
X1007Y773D02*
X1058Y773D01*
X1107Y773D02*
X1158Y773D01*
X1207Y773D02*
X1258Y773D01*
X1307Y773D02*
X1358Y773D01*
X1407Y773D02*
X1458Y773D01*
X1507Y773D02*
X1558Y773D01*
X1607Y773D02*
X1658Y773D01*
X907Y772D02*
X958Y772D01*
X1007Y772D02*
X1058Y772D01*
X1107Y772D02*
X1158Y772D01*
X1207Y772D02*
X1258Y772D01*
X1307Y772D02*
X1358Y772D01*
X1407Y772D02*
X1458Y772D01*
X1507Y772D02*
X1558Y772D01*
X1607Y772D02*
X1658Y772D01*
X907Y771D02*
X958Y771D01*
X1007Y771D02*
X1058Y771D01*
X1107Y771D02*
X1158Y771D01*
X1207Y771D02*
X1258Y771D01*
X1307Y771D02*
X1358Y771D01*
X1407Y771D02*
X1458Y771D01*
X1507Y771D02*
X1558Y771D01*
X1607Y771D02*
X1658Y771D01*
X907Y770D02*
X958Y770D01*
X1007Y770D02*
X1058Y770D01*
X1107Y770D02*
X1158Y770D01*
X1207Y770D02*
X1258Y770D01*
X1307Y770D02*
X1358Y770D01*
X1407Y770D02*
X1458Y770D01*
X1507Y770D02*
X1558Y770D01*
X1607Y770D02*
X1658Y770D01*
X907Y769D02*
X958Y769D01*
X1007Y769D02*
X1058Y769D01*
X1107Y769D02*
X1158Y769D01*
X1207Y769D02*
X1258Y769D01*
X1307Y769D02*
X1358Y769D01*
X1407Y769D02*
X1458Y769D01*
X1507Y769D02*
X1558Y769D01*
X1607Y769D02*
X1658Y769D01*
X907Y768D02*
X958Y768D01*
X1007Y768D02*
X1058Y768D01*
X1107Y768D02*
X1158Y768D01*
X1207Y768D02*
X1258Y768D01*
X1307Y768D02*
X1358Y768D01*
X1407Y768D02*
X1458Y768D01*
X1507Y768D02*
X1558Y768D01*
X1607Y768D02*
X1658Y768D01*
X907Y767D02*
X958Y767D01*
X1007Y767D02*
X1058Y767D01*
X1107Y767D02*
X1158Y767D01*
X1207Y767D02*
X1258Y767D01*
X1307Y767D02*
X1358Y767D01*
X1407Y767D02*
X1458Y767D01*
X1507Y767D02*
X1558Y767D01*
X1607Y767D02*
X1658Y767D01*
X907Y766D02*
X928Y766D01*
X937Y766D02*
X958Y766D01*
X1007Y766D02*
X1028Y766D01*
X1037Y766D02*
X1058Y766D01*
X1107Y766D02*
X1128Y766D01*
X1137Y766D02*
X1158Y766D01*
X1207Y766D02*
X1228Y766D01*
X1237Y766D02*
X1258Y766D01*
X1307Y766D02*
X1328Y766D01*
X1337Y766D02*
X1358Y766D01*
X1407Y766D02*
X1428Y766D01*
X1437Y766D02*
X1458Y766D01*
X1507Y766D02*
X1528Y766D01*
X1537Y766D02*
X1558Y766D01*
X1607Y766D02*
X1628Y766D01*
X1637Y766D02*
X1658Y766D01*
X907Y765D02*
X925Y765D01*
X940Y765D02*
X958Y765D01*
X1007Y765D02*
X1025Y765D01*
X1040Y765D02*
X1058Y765D01*
X1107Y765D02*
X1125Y765D01*
X1140Y765D02*
X1158Y765D01*
X1207Y765D02*
X1225Y765D01*
X1240Y765D02*
X1258Y765D01*
X1307Y765D02*
X1325Y765D01*
X1340Y765D02*
X1358Y765D01*
X1407Y765D02*
X1425Y765D01*
X1440Y765D02*
X1458Y765D01*
X1507Y765D02*
X1525Y765D01*
X1540Y765D02*
X1558Y765D01*
X1607Y765D02*
X1625Y765D01*
X1640Y765D02*
X1658Y765D01*
X907Y764D02*
X923Y764D01*
X942Y764D02*
X958Y764D01*
X1007Y764D02*
X1023Y764D01*
X1042Y764D02*
X1058Y764D01*
X1107Y764D02*
X1123Y764D01*
X1142Y764D02*
X1158Y764D01*
X1207Y764D02*
X1223Y764D01*
X1242Y764D02*
X1258Y764D01*
X1307Y764D02*
X1323Y764D01*
X1342Y764D02*
X1358Y764D01*
X1407Y764D02*
X1423Y764D01*
X1442Y764D02*
X1458Y764D01*
X1507Y764D02*
X1523Y764D01*
X1542Y764D02*
X1558Y764D01*
X1607Y764D02*
X1623Y764D01*
X1642Y764D02*
X1658Y764D01*
X907Y763D02*
X922Y763D01*
X943Y763D02*
X958Y763D01*
X1007Y763D02*
X1022Y763D01*
X1043Y763D02*
X1058Y763D01*
X1107Y763D02*
X1122Y763D01*
X1143Y763D02*
X1158Y763D01*
X1207Y763D02*
X1222Y763D01*
X1243Y763D02*
X1258Y763D01*
X1307Y763D02*
X1322Y763D01*
X1343Y763D02*
X1358Y763D01*
X1407Y763D02*
X1422Y763D01*
X1443Y763D02*
X1458Y763D01*
X1507Y763D02*
X1522Y763D01*
X1543Y763D02*
X1558Y763D01*
X1607Y763D02*
X1622Y763D01*
X1643Y763D02*
X1658Y763D01*
X907Y762D02*
X921Y762D01*
X944Y762D02*
X958Y762D01*
X1007Y762D02*
X1021Y762D01*
X1044Y762D02*
X1058Y762D01*
X1107Y762D02*
X1121Y762D01*
X1144Y762D02*
X1158Y762D01*
X1207Y762D02*
X1221Y762D01*
X1244Y762D02*
X1258Y762D01*
X1307Y762D02*
X1321Y762D01*
X1344Y762D02*
X1358Y762D01*
X1407Y762D02*
X1421Y762D01*
X1444Y762D02*
X1458Y762D01*
X1507Y762D02*
X1521Y762D01*
X1544Y762D02*
X1558Y762D01*
X1607Y762D02*
X1621Y762D01*
X1644Y762D02*
X1658Y762D01*
X907Y761D02*
X920Y761D01*
X945Y761D02*
X958Y761D01*
X1007Y761D02*
X1020Y761D01*
X1045Y761D02*
X1058Y761D01*
X1107Y761D02*
X1120Y761D01*
X1145Y761D02*
X1158Y761D01*
X1207Y761D02*
X1220Y761D01*
X1245Y761D02*
X1258Y761D01*
X1307Y761D02*
X1320Y761D01*
X1345Y761D02*
X1358Y761D01*
X1407Y761D02*
X1420Y761D01*
X1445Y761D02*
X1458Y761D01*
X1507Y761D02*
X1520Y761D01*
X1545Y761D02*
X1558Y761D01*
X1607Y761D02*
X1620Y761D01*
X1645Y761D02*
X1658Y761D01*
X907Y760D02*
X919Y760D01*
X946Y760D02*
X958Y760D01*
X1007Y760D02*
X1019Y760D01*
X1046Y760D02*
X1058Y760D01*
X1107Y760D02*
X1119Y760D01*
X1146Y760D02*
X1158Y760D01*
X1207Y760D02*
X1219Y760D01*
X1246Y760D02*
X1258Y760D01*
X1307Y760D02*
X1319Y760D01*
X1346Y760D02*
X1358Y760D01*
X1407Y760D02*
X1419Y760D01*
X1446Y760D02*
X1458Y760D01*
X1507Y760D02*
X1519Y760D01*
X1546Y760D02*
X1558Y760D01*
X1607Y760D02*
X1619Y760D01*
X1646Y760D02*
X1658Y760D01*
X907Y759D02*
X918Y759D01*
X947Y759D02*
X958Y759D01*
X1007Y759D02*
X1018Y759D01*
X1047Y759D02*
X1058Y759D01*
X1107Y759D02*
X1118Y759D01*
X1147Y759D02*
X1158Y759D01*
X1207Y759D02*
X1218Y759D01*
X1247Y759D02*
X1258Y759D01*
X1307Y759D02*
X1318Y759D01*
X1347Y759D02*
X1358Y759D01*
X1407Y759D02*
X1418Y759D01*
X1447Y759D02*
X1458Y759D01*
X1507Y759D02*
X1518Y759D01*
X1547Y759D02*
X1558Y759D01*
X1607Y759D02*
X1618Y759D01*
X1647Y759D02*
X1658Y759D01*
X907Y758D02*
X918Y758D01*
X947Y758D02*
X958Y758D01*
X1007Y758D02*
X1018Y758D01*
X1047Y758D02*
X1058Y758D01*
X1107Y758D02*
X1118Y758D01*
X1147Y758D02*
X1158Y758D01*
X1207Y758D02*
X1218Y758D01*
X1247Y758D02*
X1258Y758D01*
X1307Y758D02*
X1318Y758D01*
X1347Y758D02*
X1358Y758D01*
X1407Y758D02*
X1418Y758D01*
X1447Y758D02*
X1458Y758D01*
X1507Y758D02*
X1518Y758D01*
X1547Y758D02*
X1558Y758D01*
X1607Y758D02*
X1618Y758D01*
X1647Y758D02*
X1658Y758D01*
X907Y757D02*
X917Y757D01*
X948Y757D02*
X958Y757D01*
X1007Y757D02*
X1017Y757D01*
X1048Y757D02*
X1058Y757D01*
X1107Y757D02*
X1117Y757D01*
X1148Y757D02*
X1158Y757D01*
X1207Y757D02*
X1217Y757D01*
X1248Y757D02*
X1258Y757D01*
X1307Y757D02*
X1317Y757D01*
X1348Y757D02*
X1358Y757D01*
X1407Y757D02*
X1417Y757D01*
X1448Y757D02*
X1458Y757D01*
X1507Y757D02*
X1517Y757D01*
X1548Y757D02*
X1558Y757D01*
X1607Y757D02*
X1617Y757D01*
X1648Y757D02*
X1658Y757D01*
X907Y756D02*
X917Y756D01*
X948Y756D02*
X958Y756D01*
X1007Y756D02*
X1017Y756D01*
X1048Y756D02*
X1058Y756D01*
X1107Y756D02*
X1117Y756D01*
X1148Y756D02*
X1158Y756D01*
X1207Y756D02*
X1217Y756D01*
X1248Y756D02*
X1258Y756D01*
X1307Y756D02*
X1317Y756D01*
X1348Y756D02*
X1358Y756D01*
X1407Y756D02*
X1417Y756D01*
X1448Y756D02*
X1458Y756D01*
X1507Y756D02*
X1517Y756D01*
X1548Y756D02*
X1558Y756D01*
X1607Y756D02*
X1617Y756D01*
X1648Y756D02*
X1658Y756D01*
X907Y755D02*
X917Y755D01*
X948Y755D02*
X958Y755D01*
X1007Y755D02*
X1017Y755D01*
X1048Y755D02*
X1058Y755D01*
X1107Y755D02*
X1117Y755D01*
X1148Y755D02*
X1158Y755D01*
X1207Y755D02*
X1217Y755D01*
X1248Y755D02*
X1258Y755D01*
X1307Y755D02*
X1317Y755D01*
X1348Y755D02*
X1358Y755D01*
X1407Y755D02*
X1417Y755D01*
X1448Y755D02*
X1458Y755D01*
X1507Y755D02*
X1517Y755D01*
X1548Y755D02*
X1558Y755D01*
X1607Y755D02*
X1617Y755D01*
X1648Y755D02*
X1658Y755D01*
X907Y754D02*
X916Y754D01*
X949Y754D02*
X958Y754D01*
X1007Y754D02*
X1016Y754D01*
X1049Y754D02*
X1058Y754D01*
X1107Y754D02*
X1116Y754D01*
X1149Y754D02*
X1158Y754D01*
X1207Y754D02*
X1216Y754D01*
X1249Y754D02*
X1258Y754D01*
X1307Y754D02*
X1316Y754D01*
X1349Y754D02*
X1358Y754D01*
X1407Y754D02*
X1416Y754D01*
X1449Y754D02*
X1458Y754D01*
X1507Y754D02*
X1516Y754D01*
X1549Y754D02*
X1558Y754D01*
X1607Y754D02*
X1616Y754D01*
X1649Y754D02*
X1658Y754D01*
X907Y753D02*
X916Y753D01*
X949Y753D02*
X958Y753D01*
X1007Y753D02*
X1016Y753D01*
X1049Y753D02*
X1058Y753D01*
X1107Y753D02*
X1116Y753D01*
X1149Y753D02*
X1158Y753D01*
X1207Y753D02*
X1216Y753D01*
X1249Y753D02*
X1258Y753D01*
X1307Y753D02*
X1316Y753D01*
X1349Y753D02*
X1358Y753D01*
X1407Y753D02*
X1416Y753D01*
X1449Y753D02*
X1458Y753D01*
X1507Y753D02*
X1516Y753D01*
X1549Y753D02*
X1558Y753D01*
X1607Y753D02*
X1616Y753D01*
X1649Y753D02*
X1658Y753D01*
X907Y752D02*
X916Y752D01*
X949Y752D02*
X958Y752D01*
X1007Y752D02*
X1016Y752D01*
X1049Y752D02*
X1058Y752D01*
X1107Y752D02*
X1116Y752D01*
X1149Y752D02*
X1158Y752D01*
X1207Y752D02*
X1216Y752D01*
X1249Y752D02*
X1258Y752D01*
X1307Y752D02*
X1316Y752D01*
X1349Y752D02*
X1358Y752D01*
X1407Y752D02*
X1416Y752D01*
X1449Y752D02*
X1458Y752D01*
X1507Y752D02*
X1516Y752D01*
X1549Y752D02*
X1558Y752D01*
X1607Y752D02*
X1616Y752D01*
X1649Y752D02*
X1658Y752D01*
X907Y751D02*
X916Y751D01*
X949Y751D02*
X958Y751D01*
X1007Y751D02*
X1016Y751D01*
X1049Y751D02*
X1058Y751D01*
X1107Y751D02*
X1116Y751D01*
X1149Y751D02*
X1158Y751D01*
X1207Y751D02*
X1216Y751D01*
X1249Y751D02*
X1258Y751D01*
X1307Y751D02*
X1316Y751D01*
X1349Y751D02*
X1358Y751D01*
X1407Y751D02*
X1416Y751D01*
X1449Y751D02*
X1458Y751D01*
X1507Y751D02*
X1516Y751D01*
X1549Y751D02*
X1558Y751D01*
X1607Y751D02*
X1616Y751D01*
X1649Y751D02*
X1658Y751D01*
X907Y750D02*
X916Y750D01*
X949Y750D02*
X958Y750D01*
X1007Y750D02*
X1016Y750D01*
X1049Y750D02*
X1058Y750D01*
X1107Y750D02*
X1116Y750D01*
X1149Y750D02*
X1158Y750D01*
X1207Y750D02*
X1216Y750D01*
X1249Y750D02*
X1258Y750D01*
X1307Y750D02*
X1316Y750D01*
X1349Y750D02*
X1358Y750D01*
X1407Y750D02*
X1416Y750D01*
X1449Y750D02*
X1458Y750D01*
X1507Y750D02*
X1516Y750D01*
X1549Y750D02*
X1558Y750D01*
X1607Y750D02*
X1616Y750D01*
X1649Y750D02*
X1658Y750D01*
X907Y749D02*
X916Y749D01*
X949Y749D02*
X958Y749D01*
X1007Y749D02*
X1016Y749D01*
X1049Y749D02*
X1058Y749D01*
X1107Y749D02*
X1116Y749D01*
X1149Y749D02*
X1158Y749D01*
X1207Y749D02*
X1216Y749D01*
X1249Y749D02*
X1258Y749D01*
X1307Y749D02*
X1316Y749D01*
X1349Y749D02*
X1358Y749D01*
X1407Y749D02*
X1416Y749D01*
X1449Y749D02*
X1458Y749D01*
X1507Y749D02*
X1516Y749D01*
X1549Y749D02*
X1558Y749D01*
X1607Y749D02*
X1616Y749D01*
X1649Y749D02*
X1658Y749D01*
X907Y748D02*
X916Y748D01*
X949Y748D02*
X958Y748D01*
X1007Y748D02*
X1016Y748D01*
X1049Y748D02*
X1058Y748D01*
X1107Y748D02*
X1116Y748D01*
X1149Y748D02*
X1158Y748D01*
X1207Y748D02*
X1216Y748D01*
X1249Y748D02*
X1258Y748D01*
X1307Y748D02*
X1316Y748D01*
X1349Y748D02*
X1358Y748D01*
X1407Y748D02*
X1416Y748D01*
X1449Y748D02*
X1458Y748D01*
X1507Y748D02*
X1516Y748D01*
X1549Y748D02*
X1558Y748D01*
X1607Y748D02*
X1616Y748D01*
X1649Y748D02*
X1658Y748D01*
X907Y747D02*
X917Y747D01*
X949Y747D02*
X958Y747D01*
X1007Y747D02*
X1017Y747D01*
X1049Y747D02*
X1058Y747D01*
X1107Y747D02*
X1117Y747D01*
X1149Y747D02*
X1158Y747D01*
X1207Y747D02*
X1216Y747D01*
X1249Y747D02*
X1258Y747D01*
X1307Y747D02*
X1316Y747D01*
X1349Y747D02*
X1358Y747D01*
X1407Y747D02*
X1416Y747D01*
X1449Y747D02*
X1458Y747D01*
X1507Y747D02*
X1516Y747D01*
X1549Y747D02*
X1558Y747D01*
X1607Y747D02*
X1616Y747D01*
X1649Y747D02*
X1658Y747D01*
X907Y746D02*
X917Y746D01*
X948Y746D02*
X958Y746D01*
X1007Y746D02*
X1017Y746D01*
X1048Y746D02*
X1058Y746D01*
X1107Y746D02*
X1117Y746D01*
X1148Y746D02*
X1158Y746D01*
X1207Y746D02*
X1217Y746D01*
X1248Y746D02*
X1258Y746D01*
X1307Y746D02*
X1317Y746D01*
X1348Y746D02*
X1358Y746D01*
X1407Y746D02*
X1417Y746D01*
X1448Y746D02*
X1458Y746D01*
X1507Y746D02*
X1517Y746D01*
X1548Y746D02*
X1558Y746D01*
X1607Y746D02*
X1617Y746D01*
X1648Y746D02*
X1658Y746D01*
X907Y745D02*
X917Y745D01*
X948Y745D02*
X958Y745D01*
X1007Y745D02*
X1017Y745D01*
X1048Y745D02*
X1058Y745D01*
X1107Y745D02*
X1117Y745D01*
X1148Y745D02*
X1158Y745D01*
X1207Y745D02*
X1217Y745D01*
X1248Y745D02*
X1258Y745D01*
X1307Y745D02*
X1317Y745D01*
X1348Y745D02*
X1358Y745D01*
X1407Y745D02*
X1417Y745D01*
X1448Y745D02*
X1458Y745D01*
X1507Y745D02*
X1517Y745D01*
X1548Y745D02*
X1558Y745D01*
X1607Y745D02*
X1617Y745D01*
X1648Y745D02*
X1658Y745D01*
X907Y744D02*
X918Y744D01*
X948Y744D02*
X958Y744D01*
X1007Y744D02*
X1018Y744D01*
X1048Y744D02*
X1058Y744D01*
X1107Y744D02*
X1118Y744D01*
X1148Y744D02*
X1158Y744D01*
X1207Y744D02*
X1218Y744D01*
X1248Y744D02*
X1258Y744D01*
X1307Y744D02*
X1318Y744D01*
X1348Y744D02*
X1358Y744D01*
X1407Y744D02*
X1418Y744D01*
X1448Y744D02*
X1458Y744D01*
X1507Y744D02*
X1517Y744D01*
X1547Y744D02*
X1558Y744D01*
X1607Y744D02*
X1617Y744D01*
X1647Y744D02*
X1658Y744D01*
X907Y743D02*
X918Y743D01*
X947Y743D02*
X958Y743D01*
X1007Y743D02*
X1018Y743D01*
X1047Y743D02*
X1058Y743D01*
X1107Y743D02*
X1118Y743D01*
X1147Y743D02*
X1158Y743D01*
X1207Y743D02*
X1218Y743D01*
X1247Y743D02*
X1258Y743D01*
X1307Y743D02*
X1318Y743D01*
X1347Y743D02*
X1358Y743D01*
X1407Y743D02*
X1418Y743D01*
X1447Y743D02*
X1458Y743D01*
X1507Y743D02*
X1518Y743D01*
X1547Y743D02*
X1558Y743D01*
X1607Y743D02*
X1618Y743D01*
X1647Y743D02*
X1658Y743D01*
X907Y742D02*
X919Y742D01*
X946Y742D02*
X958Y742D01*
X1007Y742D02*
X1019Y742D01*
X1046Y742D02*
X1058Y742D01*
X1107Y742D02*
X1119Y742D01*
X1146Y742D02*
X1158Y742D01*
X1207Y742D02*
X1219Y742D01*
X1246Y742D02*
X1258Y742D01*
X1307Y742D02*
X1319Y742D01*
X1346Y742D02*
X1358Y742D01*
X1407Y742D02*
X1419Y742D01*
X1446Y742D02*
X1458Y742D01*
X1507Y742D02*
X1519Y742D01*
X1546Y742D02*
X1558Y742D01*
X1607Y742D02*
X1619Y742D01*
X1646Y742D02*
X1658Y742D01*
X907Y741D02*
X919Y741D01*
X946Y741D02*
X958Y741D01*
X1007Y741D02*
X1019Y741D01*
X1046Y741D02*
X1058Y741D01*
X1107Y741D02*
X1119Y741D01*
X1146Y741D02*
X1158Y741D01*
X1207Y741D02*
X1219Y741D01*
X1246Y741D02*
X1258Y741D01*
X1307Y741D02*
X1319Y741D01*
X1346Y741D02*
X1358Y741D01*
X1407Y741D02*
X1419Y741D01*
X1446Y741D02*
X1458Y741D01*
X1507Y741D02*
X1519Y741D01*
X1546Y741D02*
X1558Y741D01*
X1607Y741D02*
X1619Y741D01*
X1646Y741D02*
X1658Y741D01*
X907Y740D02*
X920Y740D01*
X945Y740D02*
X958Y740D01*
X1007Y740D02*
X1020Y740D01*
X1045Y740D02*
X1058Y740D01*
X1107Y740D02*
X1120Y740D01*
X1145Y740D02*
X1158Y740D01*
X1207Y740D02*
X1220Y740D01*
X1245Y740D02*
X1258Y740D01*
X1307Y740D02*
X1320Y740D01*
X1345Y740D02*
X1358Y740D01*
X1407Y740D02*
X1420Y740D01*
X1445Y740D02*
X1458Y740D01*
X1507Y740D02*
X1520Y740D01*
X1545Y740D02*
X1558Y740D01*
X1607Y740D02*
X1620Y740D01*
X1645Y740D02*
X1658Y740D01*
X907Y739D02*
X921Y739D01*
X944Y739D02*
X958Y739D01*
X1007Y739D02*
X1021Y739D01*
X1044Y739D02*
X1058Y739D01*
X1107Y739D02*
X1121Y739D01*
X1144Y739D02*
X1158Y739D01*
X1207Y739D02*
X1221Y739D01*
X1244Y739D02*
X1258Y739D01*
X1307Y739D02*
X1321Y739D01*
X1344Y739D02*
X1358Y739D01*
X1407Y739D02*
X1421Y739D01*
X1444Y739D02*
X1458Y739D01*
X1507Y739D02*
X1521Y739D01*
X1544Y739D02*
X1558Y739D01*
X1607Y739D02*
X1621Y739D01*
X1644Y739D02*
X1658Y739D01*
X907Y738D02*
X922Y738D01*
X943Y738D02*
X958Y738D01*
X1007Y738D02*
X1022Y738D01*
X1043Y738D02*
X1058Y738D01*
X1107Y738D02*
X1122Y738D01*
X1143Y738D02*
X1158Y738D01*
X1207Y738D02*
X1222Y738D01*
X1243Y738D02*
X1258Y738D01*
X1307Y738D02*
X1322Y738D01*
X1343Y738D02*
X1358Y738D01*
X1407Y738D02*
X1422Y738D01*
X1443Y738D02*
X1458Y738D01*
X1507Y738D02*
X1522Y738D01*
X1543Y738D02*
X1558Y738D01*
X1607Y738D02*
X1622Y738D01*
X1643Y738D02*
X1658Y738D01*
X907Y737D02*
X924Y737D01*
X941Y737D02*
X958Y737D01*
X1007Y737D02*
X1024Y737D01*
X1041Y737D02*
X1058Y737D01*
X1107Y737D02*
X1124Y737D01*
X1141Y737D02*
X1158Y737D01*
X1207Y737D02*
X1224Y737D01*
X1241Y737D02*
X1258Y737D01*
X1307Y737D02*
X1324Y737D01*
X1341Y737D02*
X1358Y737D01*
X1407Y737D02*
X1424Y737D01*
X1441Y737D02*
X1458Y737D01*
X1507Y737D02*
X1524Y737D01*
X1541Y737D02*
X1558Y737D01*
X1607Y737D02*
X1624Y737D01*
X1641Y737D02*
X1658Y737D01*
X907Y736D02*
X926Y736D01*
X939Y736D02*
X958Y736D01*
X1007Y736D02*
X1026Y736D01*
X1039Y736D02*
X1058Y736D01*
X1107Y736D02*
X1126Y736D01*
X1139Y736D02*
X1158Y736D01*
X1207Y736D02*
X1226Y736D01*
X1239Y736D02*
X1258Y736D01*
X1307Y736D02*
X1326Y736D01*
X1339Y736D02*
X1358Y736D01*
X1407Y736D02*
X1426Y736D01*
X1439Y736D02*
X1458Y736D01*
X1507Y736D02*
X1526Y736D01*
X1539Y736D02*
X1558Y736D01*
X1607Y736D02*
X1626Y736D01*
X1639Y736D02*
X1658Y736D01*
X907Y735D02*
X929Y735D01*
X936Y735D02*
X958Y735D01*
X1007Y735D02*
X1029Y735D01*
X1036Y735D02*
X1058Y735D01*
X1107Y735D02*
X1129Y735D01*
X1136Y735D02*
X1158Y735D01*
X1207Y735D02*
X1229Y735D01*
X1236Y735D02*
X1258Y735D01*
X1307Y735D02*
X1329Y735D01*
X1336Y735D02*
X1358Y735D01*
X1407Y735D02*
X1429Y735D01*
X1436Y735D02*
X1458Y735D01*
X1507Y735D02*
X1529Y735D01*
X1536Y735D02*
X1558Y735D01*
X1607Y735D02*
X1629Y735D01*
X1636Y735D02*
X1658Y735D01*
X907Y734D02*
X958Y734D01*
X1007Y734D02*
X1058Y734D01*
X1107Y734D02*
X1158Y734D01*
X1207Y734D02*
X1258Y734D01*
X1307Y734D02*
X1358Y734D01*
X1407Y734D02*
X1458Y734D01*
X1507Y734D02*
X1558Y734D01*
X1607Y734D02*
X1658Y734D01*
X907Y733D02*
X958Y733D01*
X1007Y733D02*
X1058Y733D01*
X1107Y733D02*
X1158Y733D01*
X1207Y733D02*
X1258Y733D01*
X1307Y733D02*
X1358Y733D01*
X1407Y733D02*
X1458Y733D01*
X1507Y733D02*
X1558Y733D01*
X1607Y733D02*
X1658Y733D01*
X907Y732D02*
X958Y732D01*
X1007Y732D02*
X1058Y732D01*
X1107Y732D02*
X1158Y732D01*
X1207Y732D02*
X1258Y732D01*
X1307Y732D02*
X1358Y732D01*
X1407Y732D02*
X1458Y732D01*
X1507Y732D02*
X1558Y732D01*
X1607Y732D02*
X1658Y732D01*
X907Y731D02*
X958Y731D01*
X1007Y731D02*
X1058Y731D01*
X1107Y731D02*
X1158Y731D01*
X1207Y731D02*
X1258Y731D01*
X1307Y731D02*
X1358Y731D01*
X1407Y731D02*
X1458Y731D01*
X1507Y731D02*
X1558Y731D01*
X1607Y731D02*
X1658Y731D01*
X907Y730D02*
X958Y730D01*
X1007Y730D02*
X1058Y730D01*
X1107Y730D02*
X1158Y730D01*
X1207Y730D02*
X1258Y730D01*
X1307Y730D02*
X1358Y730D01*
X1407Y730D02*
X1458Y730D01*
X1507Y730D02*
X1558Y730D01*
X1607Y730D02*
X1658Y730D01*
X907Y729D02*
X958Y729D01*
X1007Y729D02*
X1058Y729D01*
X1107Y729D02*
X1158Y729D01*
X1207Y729D02*
X1258Y729D01*
X1307Y729D02*
X1358Y729D01*
X1407Y729D02*
X1458Y729D01*
X1507Y729D02*
X1558Y729D01*
X1607Y729D02*
X1658Y729D01*
X907Y728D02*
X958Y728D01*
X1007Y728D02*
X1058Y728D01*
X1107Y728D02*
X1158Y728D01*
X1207Y728D02*
X1258Y728D01*
X1307Y728D02*
X1358Y728D01*
X1407Y728D02*
X1458Y728D01*
X1507Y728D02*
X1558Y728D01*
X1607Y728D02*
X1658Y728D01*
X907Y727D02*
X958Y727D01*
X1007Y727D02*
X1058Y727D01*
X1107Y727D02*
X1158Y727D01*
X1207Y727D02*
X1258Y727D01*
X1307Y727D02*
X1358Y727D01*
X1407Y727D02*
X1458Y727D01*
X1507Y727D02*
X1558Y727D01*
X1607Y727D02*
X1658Y727D01*
X907Y726D02*
X958Y726D01*
X1007Y726D02*
X1058Y726D01*
X1107Y726D02*
X1158Y726D01*
X1207Y726D02*
X1258Y726D01*
X1307Y726D02*
X1358Y726D01*
X1407Y726D02*
X1458Y726D01*
X1507Y726D02*
X1558Y726D01*
X1607Y726D02*
X1658Y726D01*
X907Y725D02*
X958Y725D01*
X1007Y725D02*
X1058Y725D01*
X1107Y725D02*
X1158Y725D01*
X1207Y725D02*
X1258Y725D01*
X1307Y725D02*
X1358Y725D01*
X1407Y725D02*
X1458Y725D01*
X1507Y725D02*
X1558Y725D01*
X1607Y725D02*
X1658Y725D01*
X907Y724D02*
X958Y724D01*
X1007Y724D02*
X1058Y724D01*
X1107Y724D02*
X1158Y724D01*
X1207Y724D02*
X1258Y724D01*
X1307Y724D02*
X1358Y724D01*
X1407Y724D02*
X1458Y724D01*
X1507Y724D02*
X1558Y724D01*
X1607Y724D02*
X1658Y724D01*
X907Y723D02*
X958Y723D01*
X1007Y723D02*
X1058Y723D01*
X1107Y723D02*
X1158Y723D01*
X1207Y723D02*
X1258Y723D01*
X1307Y723D02*
X1358Y723D01*
X1407Y723D02*
X1458Y723D01*
X1507Y723D02*
X1558Y723D01*
X1607Y723D02*
X1658Y723D01*
X907Y722D02*
X958Y722D01*
X1007Y722D02*
X1058Y722D01*
X1107Y722D02*
X1158Y722D01*
X1207Y722D02*
X1258Y722D01*
X1307Y722D02*
X1358Y722D01*
X1407Y722D02*
X1458Y722D01*
X1507Y722D02*
X1558Y722D01*
X1607Y722D02*
X1658Y722D01*
X907Y721D02*
X958Y721D01*
X1007Y721D02*
X1058Y721D01*
X1107Y721D02*
X1158Y721D01*
X1207Y721D02*
X1258Y721D01*
X1307Y721D02*
X1358Y721D01*
X1407Y721D02*
X1458Y721D01*
X1507Y721D02*
X1558Y721D01*
X1607Y721D02*
X1658Y721D01*
X907Y720D02*
X958Y720D01*
X1007Y720D02*
X1058Y720D01*
X1107Y720D02*
X1158Y720D01*
X1207Y720D02*
X1258Y720D01*
X1307Y720D02*
X1358Y720D01*
X1407Y720D02*
X1458Y720D01*
X1507Y720D02*
X1558Y720D01*
X1607Y720D02*
X1658Y720D01*
X908Y719D02*
X957Y719D01*
X1008Y719D02*
X1057Y719D01*
X1108Y719D02*
X1157Y719D01*
X1208Y719D02*
X1257Y719D01*
X1308Y719D02*
X1357Y719D01*
X1408Y719D02*
X1457Y719D01*
X1508Y719D02*
X1557Y719D01*
X1608Y719D02*
X1657Y719D01*
X908Y718D02*
X957Y718D01*
X1008Y718D02*
X1057Y718D01*
X1108Y718D02*
X1157Y718D01*
X1208Y718D02*
X1257Y718D01*
X1308Y718D02*
X1357Y718D01*
X1408Y718D02*
X1457Y718D01*
X1508Y718D02*
X1557Y718D01*
X1608Y718D02*
X1657Y718D01*
X908Y717D02*
X957Y717D01*
X1008Y717D02*
X1057Y717D01*
X1108Y717D02*
X1157Y717D01*
X1208Y717D02*
X1257Y717D01*
X1308Y717D02*
X1357Y717D01*
X1408Y717D02*
X1457Y717D01*
X1508Y717D02*
X1557Y717D01*
X1608Y717D02*
X1657Y717D01*
X909Y716D02*
X957Y716D01*
X1009Y716D02*
X1057Y716D01*
X1109Y716D02*
X1157Y716D01*
X1209Y716D02*
X1257Y716D01*
X1309Y716D02*
X1357Y716D01*
X1409Y716D02*
X1456Y716D01*
X1509Y716D02*
X1556Y716D01*
X1608Y716D02*
X1656Y716D01*
X909Y715D02*
X956Y715D01*
X1009Y715D02*
X1056Y715D01*
X1109Y715D02*
X1156Y715D01*
X1209Y715D02*
X1256Y715D01*
X1309Y715D02*
X1356Y715D01*
X1409Y715D02*
X1456Y715D01*
X1509Y715D02*
X1556Y715D01*
X1609Y715D02*
X1656Y715D01*
X909Y714D02*
X956Y714D01*
X1009Y714D02*
X1056Y714D01*
X1109Y714D02*
X1156Y714D01*
X1209Y714D02*
X1256Y714D01*
X1309Y714D02*
X1356Y714D01*
X1409Y714D02*
X1456Y714D01*
X1509Y714D02*
X1556Y714D01*
X1609Y714D02*
X1656Y714D01*
X910Y713D02*
X955Y713D01*
X1010Y713D02*
X1055Y713D01*
X1110Y713D02*
X1155Y713D01*
X1210Y713D02*
X1255Y713D01*
X1310Y713D02*
X1355Y713D01*
X1410Y713D02*
X1455Y713D01*
X1510Y713D02*
X1555Y713D01*
X1610Y713D02*
X1655Y713D01*
X910Y712D02*
X955Y712D01*
X1010Y712D02*
X1055Y712D01*
X1110Y712D02*
X1155Y712D01*
X1210Y712D02*
X1255Y712D01*
X1310Y712D02*
X1355Y712D01*
X1410Y712D02*
X1455Y712D01*
X1510Y712D02*
X1555Y712D01*
X1610Y712D02*
X1655Y712D01*
X911Y711D02*
X954Y711D01*
X1011Y711D02*
X1054Y711D01*
X1111Y711D02*
X1154Y711D01*
X1211Y711D02*
X1254Y711D01*
X1311Y711D02*
X1354Y711D01*
X1411Y711D02*
X1454Y711D01*
X1511Y711D02*
X1554Y711D01*
X1611Y711D02*
X1654Y711D01*
X912Y710D02*
X953Y710D01*
X1012Y710D02*
X1053Y710D01*
X1112Y710D02*
X1153Y710D01*
X1212Y710D02*
X1253Y710D01*
X1312Y710D02*
X1353Y710D01*
X1412Y710D02*
X1453Y710D01*
X1512Y710D02*
X1553Y710D01*
X1612Y710D02*
X1653Y710D01*
X912Y709D02*
X953Y709D01*
X1012Y709D02*
X1053Y709D01*
X1112Y709D02*
X1153Y709D01*
X1212Y709D02*
X1253Y709D01*
X1312Y709D02*
X1353Y709D01*
X1412Y709D02*
X1453Y709D01*
X1512Y709D02*
X1553Y709D01*
X1612Y709D02*
X1653Y709D01*
X913Y708D02*
X952Y708D01*
X1013Y708D02*
X1052Y708D01*
X1113Y708D02*
X1152Y708D01*
X1213Y708D02*
X1252Y708D01*
X1313Y708D02*
X1352Y708D01*
X1413Y708D02*
X1452Y708D01*
X1513Y708D02*
X1552Y708D01*
X1613Y708D02*
X1652Y708D01*
X914Y707D02*
X951Y707D01*
X1014Y707D02*
X1051Y707D01*
X1114Y707D02*
X1151Y707D01*
X1214Y707D02*
X1251Y707D01*
X1314Y707D02*
X1351Y707D01*
X1414Y707D02*
X1451Y707D01*
X1514Y707D02*
X1551Y707D01*
X1614Y707D02*
X1651Y707D01*
X915Y706D02*
X950Y706D01*
X1015Y706D02*
X1050Y706D01*
X1115Y706D02*
X1150Y706D01*
X1215Y706D02*
X1250Y706D01*
X1315Y706D02*
X1350Y706D01*
X1415Y706D02*
X1450Y706D01*
X1515Y706D02*
X1550Y706D01*
X1615Y706D02*
X1650Y706D01*
X916Y705D02*
X949Y705D01*
X1016Y705D02*
X1049Y705D01*
X1116Y705D02*
X1149Y705D01*
X1216Y705D02*
X1249Y705D01*
X1316Y705D02*
X1349Y705D01*
X1416Y705D02*
X1449Y705D01*
X1516Y705D02*
X1549Y705D01*
X1616Y705D02*
X1649Y705D01*
X917Y704D02*
X948Y704D01*
X1017Y704D02*
X1048Y704D01*
X1117Y704D02*
X1148Y704D01*
X1217Y704D02*
X1248Y704D01*
X1317Y704D02*
X1348Y704D01*
X1417Y704D02*
X1448Y704D01*
X1517Y704D02*
X1548Y704D01*
X1617Y704D02*
X1648Y704D01*
X919Y703D02*
X946Y703D01*
X1019Y703D02*
X1046Y703D01*
X1119Y703D02*
X1146Y703D01*
X1219Y703D02*
X1246Y703D01*
X1319Y703D02*
X1346Y703D01*
X1419Y703D02*
X1446Y703D01*
X1519Y703D02*
X1546Y703D01*
X1619Y703D02*
X1646Y703D01*
X921Y702D02*
X945Y702D01*
X1021Y702D02*
X1045Y702D01*
X1121Y702D02*
X1145Y702D01*
X1221Y702D02*
X1245Y702D01*
X1321Y702D02*
X1345Y702D01*
X1421Y702D02*
X1444Y702D01*
X1521Y702D02*
X1544Y702D01*
X1621Y702D02*
X1644Y702D01*
X922Y701D02*
X943Y701D01*
X1022Y701D02*
X1043Y701D01*
X1122Y701D02*
X1143Y701D01*
X1222Y701D02*
X1243Y701D01*
X1322Y701D02*
X1343Y701D01*
X1422Y701D02*
X1443Y701D01*
X1522Y701D02*
X1543Y701D01*
X1622Y701D02*
X1643Y701D01*
X925Y700D02*
X940Y700D01*
X1025Y700D02*
X1040Y700D01*
X1125Y700D02*
X1140Y700D01*
X1225Y700D02*
X1240Y700D01*
X1325Y700D02*
X1340Y700D01*
X1425Y700D02*
X1440Y700D01*
X1525Y700D02*
X1540Y700D01*
X1625Y700D02*
X1640Y700D01*
X929Y699D02*
X936Y699D01*
X1029Y699D02*
X1036Y699D01*
X1129Y699D02*
X1136Y699D01*
X1229Y699D02*
X1236Y699D01*
X1329Y699D02*
X1336Y699D01*
X1429Y699D02*
X1436Y699D01*
X1529Y699D02*
X1536Y699D01*
X1629Y699D02*
X1636Y699D01*
D02*
G04 End of Copper1*
M02*