; NON-PLATED HOLES START AT T1
; THROUGH (PLATED) HOLES START AT T100
M48
INCH
T100C0.040000
T101C0.040639
T102C0.032000
%
T100
X019321Y020502
X002321Y004502
X011321Y001502
X002321Y012502
X002321Y016502
X015321Y020502
X013321Y001502
X002321Y018502
X023321Y020502
X002321Y002502
X027321Y020502
X023321Y001502
X013321Y020502
X025321Y020502
X002321Y014502
X021321Y020502
X031321Y008502
X025321Y001502
X031321Y020502
X002321Y020502
X019321Y001502
X002321Y010502
X031321Y001502
X031321Y010502
X009321Y001502
X017321Y020502
X029321Y001502
X002321Y006502
X029321Y020502
X015321Y001502
X021321Y001502
X011321Y020502
X017321Y001502
X009321Y020502
X027321Y001502
T101
X021321Y013502
X020321Y013502
X017321Y014502
X024321Y014502
X027321Y014502
X014321Y014502
X017321Y013502
X013321Y014502
X028321Y013502
X025321Y014502
X015321Y014502
X031321Y013502
X018321Y013502
X031321Y014502
X029321Y013502
X026321Y013502
X016321Y014502
X019321Y013502
X028321Y014502
X027321Y013502
X015321Y013502
X023321Y014502
X022321Y013502
X020321Y014502
X030321Y014502
X023321Y013502
X016321Y013502
X021321Y014502
X012321Y013502
X026321Y014502
X018321Y014502
X030321Y013502
X013321Y013502
X012321Y014502
X014321Y013502
X019321Y014502
X022321Y014502
X025321Y013502
X029321Y014502
X024321Y013502
T102
X011321Y010502
X014321Y010502
X015321Y010502
X014321Y007502
X013321Y007502
X016321Y007502
X009321Y010502
X016321Y010502
X009321Y007502
X010321Y007502
X015321Y007502
X012321Y007502
X010321Y010502
X013321Y010502
X012321Y010502
X011321Y007502
T00
M30
